<svg width="500" height="500" viewBox="0 0 500 500" fill="none" xmlns="http://www.w3.org/2000/svg">
<path d="M238.4 445.05H45.3001C43.7857 445.05 42.3333 444.448 41.2625 443.378C40.1917 442.307 39.5901 440.854 39.5901 439.34V60.66C39.6033 59.1543 40.2107 57.7147 41.2801 56.6547C42.3495 55.5947 43.7943 54.9999 45.3001 55H238.4C239.15 55 239.892 55.1477 240.585 55.4346C241.278 55.7216 241.907 56.1422 242.438 56.6724C242.968 57.2026 243.388 57.8321 243.675 58.5249C243.962 59.2176 244.11 59.9602 244.11 60.71V439.34C244.11 440.09 243.962 440.832 243.675 441.525C243.388 442.218 242.968 442.847 242.438 443.378C241.907 443.908 241.278 444.328 240.585 444.615C239.892 444.902 239.15 445.05 238.4 445.05ZM45.3001 55.2C43.8528 55.2026 42.4656 55.7787 41.4422 56.8021C40.4188 57.8255 39.8427 59.2127 39.8401 60.66V439.34C39.8427 440.787 40.4188 442.174 41.4422 443.198C42.4656 444.221 43.8528 444.797 45.3001 444.8H238.4C239.847 444.797 241.235 444.221 242.258 443.198C243.281 442.174 243.857 440.787 243.86 439.34V60.66C243.857 59.2127 243.281 57.8255 242.258 56.8021C241.235 55.7787 239.847 55.2026 238.4 55.2H45.3001Z" fill="#EBEBEB"/>
<path d="M454.7 445.05H261.6C260.086 445.05 258.633 444.448 257.563 443.378C256.492 442.307 255.89 440.854 255.89 439.34V60.66C255.903 59.1543 256.511 57.7147 257.58 56.6547C258.65 55.5947 260.094 54.9999 261.6 55H454.7C456.215 55 457.667 55.6016 458.738 56.6724C459.809 57.7433 460.41 59.1956 460.41 60.71V439.34C460.41 440.09 460.262 440.832 459.975 441.525C459.689 442.218 459.268 442.847 458.738 443.378C458.207 443.908 457.578 444.328 456.885 444.615C456.193 444.902 455.45 445.05 454.7 445.05ZM261.6 55.2C260.153 55.2026 258.766 55.7787 257.742 56.8021C256.719 57.8255 256.143 59.2127 256.14 60.66V439.34C256.143 440.787 256.719 442.174 257.742 443.198C258.766 444.221 260.153 444.797 261.6 444.8H454.7C456.147 444.797 457.535 444.221 458.558 443.198C459.581 442.174 460.158 440.787 460.16 439.34V60.66C460.158 59.2127 459.581 57.8255 458.558 56.8021C457.535 55.7787 456.147 55.2026 454.7 55.2H261.6Z" fill="#EBEBEB"/>
<path d="M113.05 168.25L114.67 171.52L118.29 172.05L115.67 174.6L116.29 178.2L113.05 176.5L109.82 178.2L110.44 174.6L107.82 172.05L111.44 171.52L113.05 168.25Z" fill="#EBEBEB"/>
<path d="M436.7 322.48L438.32 325.76L441.94 326.29L439.32 328.83L439.94 332.44L436.7 330.74L433.47 332.44L434.09 328.83L431.47 326.29L435.09 325.76L436.7 322.48Z" fill="#F5F5F5"/>
<path d="M372.6 417.57L374.22 420.84L377.83 421.37L375.21 423.92L375.83 427.52L372.6 425.82L369.37 427.52L369.98 423.92L367.37 421.37L370.98 420.84L372.6 417.57Z" fill="#F5F5F5"/>
<path d="M225.94 110.15L226.54 111.37L227.89 111.57C227.965 111.58 228.036 111.611 228.095 111.659C228.153 111.708 228.196 111.772 228.219 111.845C228.242 111.917 228.244 111.995 228.225 112.068C228.206 112.142 228.166 112.208 228.11 112.26L227.11 113.21L227.34 114.55C227.352 114.624 227.343 114.701 227.314 114.77C227.285 114.84 227.238 114.901 227.177 114.945C227.115 114.99 227.043 115.016 226.968 115.023C226.893 115.029 226.817 115.014 226.75 114.98L225.55 114.34L224.35 114.98C224.283 115.014 224.207 115.029 224.132 115.023C224.057 115.016 223.984 114.99 223.923 114.945C223.862 114.901 223.815 114.84 223.786 114.77C223.757 114.701 223.748 114.624 223.76 114.55L223.98 113.21L222.98 112.26C222.924 112.207 222.884 112.14 222.865 112.066C222.846 111.992 222.849 111.914 222.874 111.841C222.898 111.768 222.942 111.704 223.002 111.656C223.062 111.608 223.134 111.578 223.21 111.57L224.55 111.37L225.15 110.15C225.174 110.063 225.226 109.987 225.297 109.933C225.368 109.879 225.455 109.85 225.545 109.85C225.635 109.85 225.722 109.879 225.793 109.933C225.864 109.987 225.916 110.063 225.94 110.15Z" fill="#EBEBEB"/>
<path d="M60.78 402L61.38 403.21L62.72 403.41C62.7961 403.421 62.8677 403.452 62.9266 403.502C62.9856 403.551 63.0296 403.616 63.0536 403.688C63.0775 403.761 63.0805 403.84 63.0622 403.914C63.0439 403.989 63.005 404.057 62.95 404.11L61.95 405.05L62.18 406.39C62.1918 406.465 62.1828 406.541 62.1539 406.611C62.1251 406.681 62.0775 406.741 62.0165 406.786C61.9555 406.83 61.8834 406.857 61.8081 406.863C61.7328 406.869 61.6574 406.854 61.59 406.82L60.39 406.19L59.19 406.82C59.1226 406.854 59.0471 406.869 58.9719 406.863C58.8966 406.857 58.8245 406.83 58.7635 406.786C58.7024 406.741 58.6549 406.681 58.626 406.611C58.5972 406.541 58.5882 406.465 58.6 406.39L58.83 405.05L57.83 404.11C57.7751 404.057 57.7361 403.99 57.7173 403.916C57.6985 403.843 57.7006 403.765 57.7235 403.692C57.7463 403.62 57.789 403.555 57.8466 403.505C57.9043 403.455 57.9747 403.422 58.05 403.41L59.39 403.21L60 402C60.0267 401.918 60.0788 401.846 60.1489 401.795C60.219 401.744 60.3034 401.717 60.39 401.717C60.4766 401.717 60.561 401.744 60.6311 401.795C60.7011 401.846 60.7533 401.918 60.78 402Z" fill="#F5F5F5"/>
<path d="M87.7501 97.3009L88.3501 98.5209L89.7001 98.7109C89.7753 98.7229 89.8457 98.7556 89.9034 98.8054C89.9611 98.8552 90.0038 98.9201 90.0266 98.9928C90.0495 99.0655 90.0516 99.1432 90.0328 99.217C90.014 99.2908 89.9749 99.358 89.9201 99.4109L88.9201 100.411L89.1501 101.741C89.1661 101.816 89.1599 101.895 89.1322 101.967C89.1046 102.039 89.0567 102.102 88.9943 102.147C88.932 102.192 88.8578 102.219 88.7807 102.223C88.7037 102.227 88.6271 102.209 88.5601 102.171L87.3601 101.541L86.1601 102.171C86.0931 102.209 86.0165 102.227 85.9394 102.223C85.8624 102.219 85.7882 102.192 85.7258 102.147C85.6635 102.102 85.6156 102.039 85.5879 101.967C85.5603 101.895 85.5541 101.816 85.5701 101.741L85.7901 100.411L84.7901 99.4109C84.735 99.3573 84.6962 99.2894 84.6778 99.2148C84.6595 99.1402 84.6625 99.062 84.6865 98.9891C84.7105 98.9161 84.7545 98.8514 84.8134 98.8022C84.8724 98.753 84.944 98.7214 85.0201 98.7109L86.3601 98.5209L87.0001 97.3009C87.0322 97.2282 87.0847 97.1664 87.1513 97.1231C87.2179 97.0797 87.2956 97.0566 87.3751 97.0566C87.4545 97.0566 87.5323 97.0797 87.5988 97.1231C87.6654 97.1664 87.718 97.2282 87.7501 97.3009Z" fill="#EBEBEB"/>
<path d="M86.1302 338.32C86.1322 338.583 86.0558 338.842 85.9109 339.062C85.766 339.282 85.559 339.454 85.3161 339.556C85.0733 339.658 84.8055 339.686 84.5469 339.636C84.2882 339.585 84.0503 339.46 83.8633 339.274C83.6763 339.088 83.5486 338.851 83.4965 338.593C83.4444 338.335 83.4701 338.067 83.5705 337.823C83.6709 337.58 83.8413 337.371 84.0602 337.225C84.2792 337.078 84.5367 337 84.8002 337C85.1512 337 85.488 337.139 85.7371 337.386C85.9862 337.633 86.1275 337.969 86.1302 338.32Z" fill="#EBEBEB"/>
<path d="M275.67 171.89C275.672 172.154 275.596 172.412 275.451 172.632C275.306 172.852 275.099 173.024 274.856 173.126C274.613 173.228 274.346 173.256 274.087 173.206C273.828 173.156 273.59 173.03 273.403 172.844C273.216 172.659 273.089 172.422 273.037 172.164C272.984 171.905 273.01 171.637 273.111 171.394C273.211 171.15 273.381 170.942 273.6 170.795C273.819 170.649 274.077 170.57 274.34 170.57C274.514 170.569 274.687 170.602 274.848 170.668C275.01 170.734 275.156 170.831 275.28 170.953C275.404 171.076 275.502 171.222 275.569 171.383C275.636 171.544 275.67 171.716 275.67 171.89Z" fill="#EBEBEB"/>
<path d="M206.71 98.4003C206.71 98.6634 206.632 98.9205 206.486 99.1392C206.34 99.3579 206.132 99.5284 205.889 99.6291C205.646 99.7297 205.379 99.7561 205.121 99.7048C204.863 99.6534 204.626 99.5268 204.44 99.3408C204.254 99.1548 204.127 98.9178 204.076 98.6598C204.024 98.4018 204.051 98.1344 204.151 97.8913C204.252 97.6483 204.422 97.4406 204.641 97.2945C204.86 97.1483 205.117 97.0703 205.38 97.0703C205.732 97.0729 206.069 97.2139 206.318 97.4628C206.566 97.7116 206.707 98.0484 206.71 98.4003Z" fill="#F5F5F5"/>
<path d="M208.816 422.544C212.767 421.612 215.214 417.653 214.281 413.703C213.349 409.752 209.39 407.305 205.44 408.237C201.489 409.17 199.042 413.128 199.975 417.079C200.907 421.03 204.866 423.477 208.816 422.544Z" fill="#F0F0F0"/>
<path d="M204.6 411.09C203.094 411.087 201.627 411.563 200.41 412.45C199.789 413.876 199.636 415.462 199.974 416.98C200.313 418.498 201.124 419.869 202.293 420.896C203.461 421.923 204.925 422.552 206.473 422.693C208.022 422.834 209.576 422.479 210.91 421.68C211.501 420.587 211.797 419.36 211.771 418.119C211.745 416.877 211.397 415.664 210.761 414.597C210.125 413.531 209.223 412.648 208.143 412.035C207.063 411.421 205.842 411.099 204.6 411.1V411.09Z" fill="#E6E6E6"/>
<path d="M147.68 287.64H86.8301V260.17L147.68 187.83H176.8V261.73H191.89V287.64H176.8V310.12H147.68V287.64ZM147.68 261.73V223.89L115.52 261.73H147.68Z" fill="#48D189"/>
<path d="M202.3 249.511C202.3 226.651 206.413 210.651 214.64 201.511C222.867 192.371 235.403 187.804 252.25 187.811C260.337 187.811 266.98 188.811 272.18 190.811C276.904 192.513 281.229 195.164 284.89 198.601C287.976 201.547 290.59 204.95 292.64 208.691C294.669 212.596 296.198 216.742 297.19 221.031C299.451 230.191 300.579 239.595 300.55 249.031C300.55 270.844 296.86 286.807 289.48 296.921C282.1 307.034 269.39 312.094 251.35 312.101C241.23 312.101 233.053 310.487 226.82 307.261C220.537 303.981 215.244 299.082 211.49 293.071C208.59 288.644 206.333 282.587 204.72 274.901C203.045 266.543 202.234 258.034 202.3 249.511ZM235.44 249.591C235.44 264.924 236.79 275.381 239.49 280.961C242.19 286.541 246.113 289.344 251.26 289.371C252.893 289.389 254.514 289.083 256.028 288.47C257.542 287.857 258.919 286.95 260.08 285.801C262.573 283.421 264.407 279.661 265.58 274.521C266.753 269.381 267.34 261.381 267.34 250.521C267.34 234.561 265.987 223.831 263.28 218.331C260.573 212.831 256.513 210.084 251.1 210.091C245.58 210.091 241.58 212.894 239.1 218.501C236.62 224.107 235.4 234.471 235.44 249.591Z" fill="#48D189"/>
<path d="M371.74 287.64H310.89V260.17L371.74 187.83H400.86V261.73H416V287.64H400.86V310.12H371.74V287.64ZM371.74 261.73V223.89L339.59 261.73H371.74Z" fill="#48D189"/>
<g opacity="0.3">
<path opacity="0.3" d="M201 145.62C201 145.99 200.89 146.352 200.684 146.66C200.478 146.968 200.186 147.207 199.843 147.349C199.501 147.49 199.125 147.526 198.761 147.453C198.398 147.38 198.065 147.201 197.804 146.939C197.543 146.676 197.366 146.342 197.295 145.979C197.224 145.615 197.262 145.239 197.405 144.897C197.548 144.556 197.79 144.265 198.098 144.06C198.407 143.856 198.77 143.748 199.14 143.75C199.385 143.75 199.628 143.798 199.854 143.893C200.08 143.987 200.286 144.125 200.459 144.298C200.632 144.472 200.768 144.678 200.861 144.905C200.954 145.132 201.001 145.375 201 145.62Z" fill="#48D189"/>
<path opacity="0.3" d="M72.9699 217.451C73.6989 217.451 74.2899 216.86 74.2899 216.131C74.2899 215.402 73.6989 214.811 72.9699 214.811C72.2409 214.811 71.6499 215.402 71.6499 216.131C71.6499 216.86 72.2409 217.451 72.9699 217.451Z" fill="#48D189"/>
<path opacity="0.3" d="M291.05 410.219C292.094 410.219 292.94 409.373 292.94 408.329C292.94 407.286 292.094 406.439 291.05 406.439C290.006 406.439 289.16 407.286 289.16 408.329C289.16 409.373 290.006 410.219 291.05 410.219Z" fill="#48D189"/>
<path opacity="0.3" d="M336.5 333.32C337.229 333.32 337.82 332.729 337.82 332C337.82 331.271 337.229 330.68 336.5 330.68C335.771 330.68 335.18 331.271 335.18 332C335.18 332.729 335.771 333.32 336.5 333.32Z" fill="#48D189"/>
<path opacity="0.3" d="M424.17 95.6188C424.17 95.8799 424.092 96.1351 423.947 96.3522C423.802 96.5693 423.596 96.7384 423.355 96.8383C423.114 96.9383 422.848 96.9644 422.592 96.9135C422.336 96.8625 422.101 96.7368 421.916 96.5522C421.732 96.3676 421.606 96.1324 421.555 95.8763C421.504 95.6203 421.53 95.3549 421.63 95.1137C421.73 94.8725 421.899 94.6663 422.116 94.5213C422.333 94.3762 422.589 94.2988 422.85 94.2988C423.2 94.2988 423.536 94.4379 423.783 94.6854C424.031 94.933 424.17 95.2687 424.17 95.6188Z" fill="#48D189"/>
<path opacity="0.3" d="M172.75 68.9997C172.75 69.2608 172.672 69.516 172.527 69.733C172.382 69.9501 172.176 70.1193 171.935 70.2192C171.694 70.3191 171.428 70.3453 171.172 70.2943C170.916 70.2434 170.681 70.1177 170.496 69.9331C170.312 69.7485 170.186 69.5133 170.135 69.2572C170.084 69.0012 170.11 68.7357 170.21 68.4945C170.31 68.2533 170.479 68.0472 170.697 67.9021C170.914 67.7571 171.169 67.6797 171.43 67.6797C171.779 67.6823 172.113 67.8222 172.36 68.0692C172.607 68.3162 172.747 68.6504 172.75 68.9997Z" fill="#48D189"/>
<path opacity="0.3" d="M277.7 138.259C278.429 138.259 279.02 137.668 279.02 136.939C279.02 136.21 278.429 135.619 277.7 135.619C276.971 135.619 276.38 136.21 276.38 136.939C276.38 137.668 276.971 138.259 277.7 138.259Z" fill="#48D189"/>
</g>
<path d="M141.23 138.269C153.33 138.269 163.14 128.46 163.14 116.359C163.14 104.259 153.33 94.4492 141.23 94.4492C129.129 94.4492 119.32 104.259 119.32 116.359C119.32 128.46 129.129 138.269 141.23 138.269Z" fill="#48D189"/>
<path opacity="0.7" d="M141.23 138.269C153.33 138.269 163.14 128.46 163.14 116.359C163.14 104.259 153.33 94.4492 141.23 94.4492C129.129 94.4492 119.32 104.259 119.32 116.359C119.32 128.46 129.129 138.269 141.23 138.269Z" fill="white"/>
<path opacity="0.2" d="M133.68 99.8302C130.696 99.821 127.742 100.423 125 101.6C121.63 105.304 119.63 110.05 119.332 115.049C119.034 120.048 120.457 124.998 123.364 129.075C126.27 133.153 130.486 136.112 135.308 137.462C140.13 138.811 145.269 138.468 149.87 136.49C152.722 133.347 154.601 129.443 155.277 125.253C155.953 121.062 155.398 116.766 153.679 112.885C151.961 109.003 149.152 105.705 145.595 103.389C142.038 101.074 137.885 99.8408 133.64 99.8402L133.68 99.8302Z" fill="#48D189"/>
<path opacity="0.2" d="M131.5 105.619C131.5 106.015 131.383 106.401 131.163 106.73C130.943 107.059 130.631 107.316 130.265 107.467C129.9 107.618 129.498 107.658 129.11 107.581C128.722 107.504 128.365 107.313 128.086 107.033C127.806 106.754 127.616 106.397 127.538 106.009C127.461 105.621 127.501 105.219 127.652 104.854C127.804 104.488 128.06 104.176 128.389 103.956C128.718 103.736 129.104 103.619 129.5 103.619C130.03 103.619 130.539 103.83 130.914 104.205C131.289 104.58 131.5 105.089 131.5 105.619Z" fill="#48D189"/>
<path opacity="0.2" d="M155.06 103.619C155.06 104.015 154.943 104.401 154.723 104.73C154.503 105.059 154.191 105.316 153.825 105.467C153.46 105.618 153.058 105.658 152.67 105.581C152.282 105.504 151.925 105.313 151.646 105.033C151.366 104.754 151.175 104.397 151.098 104.009C151.021 103.621 151.061 103.219 151.212 102.854C151.363 102.488 151.62 102.176 151.949 101.956C152.278 101.736 152.664 101.619 153.06 101.619C153.59 101.619 154.099 101.83 154.474 102.205C154.849 102.58 155.06 103.089 155.06 103.619Z" fill="#48D189"/>
<path opacity="0.2" d="M151.06 117.899C151.06 118.548 150.868 119.182 150.507 119.721C150.147 120.261 149.635 120.681 149.035 120.929C148.436 121.178 147.776 121.243 147.14 121.116C146.504 120.99 145.919 120.677 145.461 120.218C145.002 119.76 144.69 119.175 144.563 118.539C144.436 117.903 144.501 117.243 144.75 116.644C144.998 116.045 145.418 115.532 145.958 115.172C146.497 114.812 147.131 114.619 147.78 114.619C148.65 114.619 149.484 114.965 150.099 115.58C150.714 116.195 151.06 117.029 151.06 117.899Z" fill="#48D189"/>
<path opacity="0.2" d="M140.64 127.249C140.64 128.115 140.383 128.962 139.902 129.683C139.42 130.403 138.736 130.964 137.936 131.296C137.136 131.627 136.255 131.714 135.405 131.545C134.556 131.376 133.775 130.959 133.163 130.346C132.55 129.734 132.133 128.953 131.964 128.104C131.795 127.254 131.882 126.373 132.213 125.573C132.545 124.773 133.106 124.089 133.826 123.607C134.547 123.126 135.394 122.869 136.26 122.869C137.422 122.869 138.536 123.331 139.357 124.152C140.178 124.973 140.64 126.087 140.64 127.249Z" fill="#48D189"/>
<path d="M400.9 380.646C403.339 370.31 396.938 359.953 386.601 357.513C376.265 355.074 365.908 361.475 363.468 371.812C361.028 382.148 367.43 392.505 377.767 394.945C388.103 397.384 398.46 390.983 400.9 380.646Z" fill="#48D189"/>
<path opacity="0.3" d="M400.9 380.646C403.339 370.31 396.938 359.953 386.601 357.513C376.265 355.074 365.908 361.475 363.468 371.812C361.028 382.148 367.43 392.505 377.767 394.945C388.103 397.384 398.46 390.983 400.9 380.646Z" fill="white"/>
<path opacity="0.4" d="M394.33 361.339C390.067 360.053 385.489 360.286 381.38 362C377.27 363.713 373.882 366.801 371.796 370.735C369.71 374.669 369.054 379.205 369.941 383.569C370.829 387.932 373.203 391.852 376.66 394.659C378.453 395.204 380.316 395.48 382.19 395.479C386.16 395.479 390.032 394.249 393.275 391.959C396.519 389.67 398.974 386.433 400.304 382.692C401.634 378.952 401.774 374.891 400.704 371.068C399.635 367.245 397.408 363.847 394.33 361.339Z" fill="#48D189"/>
<path d="M363.83 382C343.3 391.66 358.61 399.11 387.54 388.71C414.33 379.08 424.54 366.94 400.54 370.71C401.83 375.76 368.28 388.83 363.83 382Z" fill="#48D189"/>
<path opacity="0.2" d="M394.1 187.83C367.21 206 332.4 230 322.79 287.64H320.74C330.09 230.64 363.63 206.07 390.53 187.83H394.1Z" fill="black"/>
<path d="M255 368.269C238 368.269 221.19 360.599 213 348.079C207.95 340.339 202.08 324.129 219.56 302.499L221.11 303.759C208.75 319.059 206.47 334.409 214.68 346.989C224.68 362.289 248.27 369.989 268.41 364.509C289.04 358.899 301.56 340.959 302.77 315.289C306.9 227.479 353.55 200.429 387.61 180.679C408.78 168.409 424.07 159.549 420.71 140.839C420.24 138.249 419.21 136.459 417.54 135.359C413.19 132.489 404.69 134.479 394.85 136.769C375.54 141.269 349.1 147.429 333.35 120.639L335.08 119.639C350.08 145.169 374.65 139.439 394.4 134.839C404.69 132.449 413.57 130.379 418.64 133.709C420.79 135.119 422.11 137.349 422.64 140.509C426.25 160.589 409.64 170.229 388.59 182.429C354.92 201.949 308.82 228.679 304.74 315.429C303.48 342.029 290.42 360.639 268.9 366.489C264.366 367.696 259.692 368.295 255 368.269Z" fill="#48D189"/>
<path opacity="0.2" d="M255 368.269C238 368.269 221.19 360.599 213 348.079C207.95 340.339 202.08 324.129 219.56 302.499L221.11 303.759C208.75 319.059 206.47 334.409 214.68 346.989C224.68 362.289 248.27 369.989 268.41 364.509C289.04 358.899 301.56 340.959 302.77 315.289C306.9 227.479 353.55 200.429 387.61 180.679C408.78 168.409 424.07 159.549 420.71 140.839C420.24 138.249 419.21 136.459 417.54 135.359C413.19 132.489 404.69 134.479 394.85 136.769C375.54 141.269 349.1 147.429 333.35 120.639L335.08 119.639C350.08 145.169 374.65 139.439 394.4 134.839C404.69 132.449 413.57 130.379 418.64 133.709C420.79 135.119 422.11 137.349 422.64 140.509C426.25 160.589 409.64 170.229 388.59 182.429C354.92 201.949 308.82 228.679 304.74 315.429C303.48 342.029 290.42 360.639 268.9 366.489C264.366 367.696 259.692 368.295 255 368.269Z" fill="white"/>
<path d="M312.76 97C317.368 97.0266 321.945 97.7446 326.34 99.13C326.34 99.13 337.34 117.9 338.64 122.2C338.18 126.44 331.03 133.39 331.03 133.39L312.76 97Z" fill="#48D189"/>
<path opacity="0.3" d="M312.76 97C317.368 97.0266 321.945 97.7446 326.34 99.13C326.34 99.13 337.34 117.9 338.64 122.2C338.18 126.44 331.03 133.39 331.03 133.39L312.76 97Z" fill="white"/>
<path d="M345.34 188.13C341.104 182.951 337.241 177.477 333.78 171.75C332.94 170.303 332.143 168.83 331.39 167.33C330.96 166.48 330.55 165.63 330.15 164.77C329.625 163.933 329.218 163.028 328.94 162.08C327.74 149.41 332.08 140.08 327.94 129.91L311.46 136.35C311.46 136.35 312.86 154.47 316.06 165.35C318.06 172.08 322.54 177.9 326.87 183.29C328.22 184.97 329.52 186.7 330.87 188.39C332.22 190.08 333.58 191.45 334.87 193.04C336.82 195.45 337.46 197.76 335.99 200.6L335.74 201.05C335.32 201.79 337.28 202.63 338.52 201.05C340.52 198.47 340.24 198.63 341.98 196.43C343.04 195.1 344.25 193.65 345.3 192.43C345.806 191.83 346.088 191.072 346.095 190.287C346.102 189.502 345.835 188.739 345.34 188.13Z" fill="#48D189"/>
<path opacity="0.7" d="M345.34 188.13C341.104 182.951 337.241 177.477 333.78 171.75C332.94 170.303 332.143 168.83 331.39 167.33C330.96 166.48 330.55 165.63 330.15 164.77C329.625 163.933 329.218 163.028 328.94 162.08C327.74 149.41 332.08 140.08 327.94 129.91L311.46 136.35C311.46 136.35 312.86 154.47 316.06 165.35C318.06 172.08 322.54 177.9 326.87 183.29C328.22 184.97 329.52 186.7 330.87 188.39C332.22 190.08 333.58 191.45 334.87 193.04C336.82 195.45 337.46 197.76 335.99 200.6L335.74 201.05C335.32 201.79 337.28 202.63 338.52 201.05C340.52 198.47 340.24 198.63 341.98 196.43C343.04 195.1 344.25 193.65 345.3 192.43C345.806 191.83 346.088 191.072 346.095 190.287C346.102 189.502 345.835 188.739 345.34 188.13Z" fill="white"/>
<path opacity="0.3" d="M341.31 182.92C338.695 185.723 335.792 188.244 332.65 190.44C333.08 190.92 333.5 191.44 333.93 191.9C337.076 189.775 339.933 187.25 342.43 184.39L341.31 182.92Z" fill="#48D189"/>
<path opacity="0.3" d="M345.34 188.13L345.22 187.99C344.451 188.873 344.003 189.99 343.95 191.16C343.886 191.963 344.016 192.769 344.33 193.51L345.28 192.38C345.777 191.786 346.054 191.04 346.065 190.266C346.076 189.492 345.82 188.738 345.34 188.13Z" fill="#48D189"/>
<path d="M308.84 109C307.054 111.675 304.91 114.094 302.47 116.19C301.117 117.356 299.634 118.363 298.05 119.19C297.218 119.616 296.356 119.981 295.47 120.28L294.79 120.5L294.57 120.56L294.1 120.69C293.811 120.759 293.517 120.806 293.22 120.83C292.376 120.895 291.528 120.817 290.71 120.6C289.679 120.307 288.69 119.88 287.77 119.33C287.03 118.897 286.312 118.427 285.62 117.92C284.37 116.99 283.174 115.988 282.04 114.92C279.853 112.847 277.845 110.593 276.04 108.18C275.692 107.71 275.52 107.133 275.552 106.55C275.584 105.966 275.819 105.412 276.216 104.983C276.613 104.554 277.147 104.277 277.727 104.199C278.306 104.122 278.895 104.25 279.39 104.56H279.47C281.83 106.06 284.21 107.64 286.53 109.05C287.71 109.74 288.85 110.44 289.98 110.98C290.496 111.25 291.027 111.491 291.57 111.7C291.909 111.849 292.271 111.938 292.64 111.96C292.7 111.96 292.64 111.89 292.27 111.9C292.154 111.893 292.037 111.893 291.92 111.9L291.7 111.95L292.03 111.78C292.475 111.541 292.905 111.277 293.32 110.99C294.215 110.359 295.052 109.65 295.82 108.87C297.567 107.039 299.203 105.106 300.72 103.08C301.551 102.15 302.7 101.565 303.94 101.438C305.181 101.311 306.424 101.653 307.425 102.395C308.427 103.138 309.115 104.228 309.355 105.452C309.594 106.676 309.368 107.945 308.72 109.01L308.84 109Z" fill="#48D189"/>
<path opacity="0.7" d="M308.84 109C307.054 111.675 304.91 114.094 302.47 116.19C301.117 117.356 299.634 118.363 298.05 119.19C297.218 119.616 296.356 119.981 295.47 120.28L294.79 120.5L294.57 120.56L294.1 120.69C293.811 120.759 293.517 120.806 293.22 120.83C292.376 120.895 291.528 120.817 290.71 120.6C289.679 120.307 288.69 119.88 287.77 119.33C287.03 118.897 286.312 118.427 285.62 117.92C284.37 116.99 283.174 115.988 282.04 114.92C279.853 112.847 277.845 110.593 276.04 108.18C275.692 107.71 275.52 107.133 275.552 106.55C275.584 105.966 275.819 105.412 276.216 104.983C276.613 104.554 277.147 104.277 277.727 104.199C278.306 104.122 278.895 104.25 279.39 104.56H279.47C281.83 106.06 284.21 107.64 286.53 109.05C287.71 109.74 288.85 110.44 289.98 110.98C290.496 111.25 291.027 111.491 291.57 111.7C291.909 111.849 292.271 111.938 292.64 111.96C292.7 111.96 292.64 111.89 292.27 111.9C292.154 111.893 292.037 111.893 291.92 111.9L291.7 111.95L292.03 111.78C292.475 111.541 292.905 111.277 293.32 110.99C294.215 110.359 295.052 109.65 295.82 108.87C297.567 107.039 299.203 105.106 300.72 103.08C301.551 102.15 302.7 101.565 303.94 101.438C305.181 101.311 306.424 101.653 307.425 102.395C308.427 103.138 309.115 104.228 309.355 105.452C309.594 106.676 309.368 107.945 308.72 109.01L308.84 109Z" fill="white"/>
<path d="M272.29 102.419L273.46 104.419C273.46 104.419 274.35 107.039 276.14 107.519L281 105.949L280.75 105.539C280.13 104.599 280.2 102.769 280.41 101.249C280.62 99.7286 279.84 99.6786 279.26 100.059C278.849 100.531 278.561 101.098 278.42 101.709C278.182 101.378 277.917 101.067 277.63 100.779L276.15 99.2986C275.84 98.9951 275.426 98.8203 274.992 98.8092C274.558 98.798 274.136 98.9514 273.81 99.2386L272.61 100.309C272.325 100.572 272.139 100.924 272.081 101.308C272.022 101.691 272.096 102.083 272.29 102.419Z" fill="#48D189"/>
<path opacity="0.7" d="M272.29 102.419L273.46 104.419C273.46 104.419 274.35 107.039 276.14 107.519L281 105.949L280.75 105.539C280.13 104.599 280.2 102.769 280.41 101.249C280.62 99.7286 279.84 99.6786 279.26 100.059C278.849 100.531 278.561 101.098 278.42 101.709C278.182 101.378 277.917 101.067 277.63 100.779L276.15 99.2986C275.84 98.9951 275.426 98.8203 274.992 98.8092C274.558 98.798 274.136 98.9514 273.81 99.2386L272.61 100.309C272.325 100.572 272.139 100.924 272.081 101.308C272.022 101.691 272.096 102.083 272.29 102.419Z" fill="white"/>
<path d="M317.67 95.2185C312.279 96.6473 307.116 98.8252 302.33 101.688C301.583 102.156 300.998 102.84 300.651 103.65C300.304 104.459 300.213 105.356 300.39 106.218C302.32 115.658 306.71 128.299 311.45 136.348L333.56 127.198C333.71 123.298 328.34 110.678 322.87 98.4785C321.89 96.2885 320 94.6585 317.67 95.2185Z" fill="#48D189"/>
<path opacity="0.8" d="M317.67 95.2185C312.279 96.6473 307.116 98.8252 302.33 101.688C301.583 102.156 300.998 102.84 300.651 103.65C300.304 104.459 300.213 105.356 300.39 106.218C302.32 115.658 306.71 128.299 311.45 136.348L333.56 127.198C333.71 123.298 328.34 110.678 322.87 98.4785C321.89 96.2885 320 94.6585 317.67 95.2185Z" fill="white"/>
<path opacity="0.3" d="M326.3 106.21L321.91 104.74C322.91 107.31 326.44 110.56 328.91 112.47C328.11 110.47 327.22 108.37 326.3 106.21Z" fill="#48D189"/>
<path d="M316.22 85.3194C314.39 81.8394 310.44 80.0894 305.7 80.4794C301.7 80.8194 298.16 84.8994 298.58 87.0994C299 89.2994 302.36 90.2394 303 90.9994L300.23 92.9994C299.902 93.2362 299.625 93.537 299.416 93.8837C299.207 94.2303 299.071 94.6156 299.015 95.0164C298.959 95.4172 298.984 95.8252 299.09 96.2158C299.196 96.6064 299.38 96.9716 299.63 97.2894C300.8 98.7694 302.34 100.289 303.23 101.409C310.89 101.209 316.56 98.2894 318.61 95.4794C317.84 91.9194 318 88.7794 316.22 85.3194Z" fill="#48D189"/>
<path opacity="0.8" d="M316.22 85.3194C314.39 81.8394 310.44 80.0894 305.7 80.4794C301.7 80.8194 298.16 84.8994 298.58 87.0994C299 89.2994 302.36 90.2394 303 90.9994L300.23 92.9994C299.902 93.2362 299.625 93.537 299.416 93.8837C299.207 94.2303 299.071 94.6156 299.015 95.0164C298.959 95.4172 298.984 95.8252 299.09 96.2158C299.196 96.6064 299.38 96.9716 299.63 97.2894C300.8 98.7694 302.34 100.289 303.23 101.409C310.89 101.209 316.56 98.2894 318.61 95.4794C317.84 91.9194 318 88.7794 316.22 85.3194Z" fill="white"/>
<path d="M312.46 87.4791C313.004 88.8737 313.122 90.3983 312.8 91.86C312.477 93.3217 311.729 94.655 310.648 95.6914C309.568 96.7278 308.205 97.4206 306.731 97.6825C305.258 97.9443 303.739 97.7633 302.368 97.1624C300.997 96.5614 299.835 95.5675 299.029 94.3063C298.223 93.0451 297.809 91.5732 297.839 90.0766C297.869 88.58 298.342 87.126 299.199 85.8983C300.055 84.6706 301.256 83.7243 302.65 83.1791C304.521 82.4502 306.606 82.4935 308.445 83.2997C310.284 84.106 311.728 85.6091 312.46 87.4791Z" fill="#263238"/>
<path d="M377.39 177.599C377.28 174.309 377.13 174.599 377.04 171.829C376.98 170.129 376.97 168.239 376.96 166.609C376.957 165.835 376.686 165.086 376.194 164.488C375.702 163.891 375.019 163.481 374.26 163.329C372.94 163.059 371.61 162.809 370.26 162.529C368.53 162.159 366.82 161.759 365.13 161.269C363.81 160.889 362.51 160.469 361.22 159.999C359.93 159.529 358.48 158.999 357.14 158.379C355.56 157.709 354 156.989 352.46 156.239C350.73 155.419 349.02 154.559 347.31 153.689C340.73 142.799 340.59 135.619 333.53 127.199L318.37 134.059C318.37 134.059 329.51 153.819 337.09 162.199C341.46 167.019 348.31 169.199 354.42 170.779C358.83 171.909 363.3 172.779 367.77 173.609C369.51 173.929 371.4 174.049 372.9 175.089C374.01 175.94 374.771 177.167 375.04 178.539C375.107 178.819 375.167 179.099 375.22 179.379C375.41 180.219 377.46 179.579 377.39 177.599Z" fill="#48D189"/>
<path opacity="0.8" d="M377.39 177.599C377.28 174.309 377.13 174.599 377.04 171.829C376.98 170.129 376.97 168.239 376.96 166.609C376.957 165.835 376.686 165.086 376.194 164.488C375.702 163.891 375.019 163.481 374.26 163.329C372.94 163.059 371.61 162.809 370.26 162.529C368.53 162.159 366.82 161.759 365.13 161.269C363.81 160.889 362.51 160.469 361.22 159.999C359.93 159.529 358.48 158.999 357.14 158.379C355.56 157.709 354 156.989 352.46 156.239C350.73 155.419 349.02 154.559 347.31 153.689C340.73 142.799 340.59 135.619 333.53 127.199L318.37 134.059C318.37 134.059 329.51 153.819 337.09 162.199C341.46 167.019 348.31 169.199 354.42 170.779C358.83 171.909 363.3 172.779 367.77 173.609C369.51 173.929 371.4 174.049 372.9 175.089C374.01 175.94 374.771 177.167 375.04 178.539C375.107 178.819 375.167 179.099 375.22 179.379C375.41 180.219 377.46 179.579 377.39 177.599Z" fill="white"/>
<path opacity="0.3" d="M369.7 162.4C369.1 162.27 368.5 162.14 367.89 161.99C367.94 165.45 366.32 171.41 365.73 173.22L367.63 173.58C368.875 169.978 369.573 166.209 369.7 162.4Z" fill="#48D189"/>
<path opacity="0.3" d="M377 166.609C376.997 165.836 376.728 165.088 376.238 164.491C375.748 163.893 375.067 163.483 374.31 163.329L373.31 163.139C373.471 164.275 374.052 165.31 374.94 166.039C375.511 166.566 376.195 166.956 376.94 167.179C377 166.999 377 166.799 377 166.609Z" fill="#48D189"/>
<path d="M311.05 87.5394C311.45 89.0594 309.75 90.6493 308.4 89.3393C307.14 87.9884 305.761 86.7534 304.28 85.6494C302.89 84.7794 304.74 83.2593 306.93 83.8493C307.865 84.0841 308.728 84.5427 309.446 85.1856C310.164 85.8284 310.714 86.6362 311.05 87.5394Z" fill="white"/>
<path d="M311.16 135.86C310.46 136.12 311.74 137.32 311.74 137.32C311.74 137.32 325.74 132.53 334.24 127.6C334.261 127.301 334.21 127.002 334.091 126.727C333.973 126.452 333.791 126.21 333.56 126.02C326.285 129.72 318.807 133.005 311.16 135.86Z" fill="#48D189"/>
<path opacity="0.5" d="M311.16 135.86C310.46 136.12 311.74 137.32 311.74 137.32C311.74 137.32 325.74 132.53 334.24 127.6C334.261 127.301 334.21 127.002 334.091 126.727C333.973 126.452 333.791 126.21 333.56 126.02C326.285 129.72 318.807 133.005 311.16 135.86Z" fill="white"/>
<path d="M321.46 94.5599C324.22 95.9599 326.81 97.4299 329.46 99.0599C330.75 99.8799 332.03 100.71 333.3 101.61C334.57 102.51 335.83 103.43 337.1 104.47L337.57 104.86L338.16 105.4C338.512 105.714 338.846 106.048 339.16 106.4C339.48 106.75 339.75 107.09 340.01 107.4C340.27 107.71 340.55 108.08 340.78 108.4C341.712 109.685 342.573 111.021 343.36 112.4C344.91 115.074 346.247 117.866 347.36 120.75C347.566 121.295 347.576 121.894 347.39 122.446C347.204 122.998 346.832 123.468 346.339 123.777C345.845 124.085 345.259 124.214 344.682 124.139C344.104 124.065 343.57 123.793 343.17 123.37L343.12 123.31C341.12 121.18 339.19 118.94 337.25 116.85C335.31 114.76 333.34 112.64 331.71 111.71C329.44 110.3 326.91 108.89 324.4 107.51L316.84 103.31C315.668 102.689 314.79 101.628 314.4 100.361C314.01 99.0929 314.14 97.7221 314.76 96.5499C315.381 95.3776 316.442 94.4999 317.709 94.1098C318.977 93.7198 320.348 93.8493 321.52 94.4699L321.46 94.5599Z" fill="#48D189"/>
<path opacity="0.8" d="M321.46 94.5599C324.22 95.9599 326.81 97.4299 329.46 99.0599C330.75 99.8799 332.03 100.71 333.3 101.61C334.57 102.51 335.83 103.43 337.1 104.47L337.57 104.86L338.16 105.4C338.512 105.714 338.846 106.048 339.16 106.4C339.48 106.75 339.75 107.09 340.01 107.4C340.27 107.71 340.55 108.08 340.78 108.4C341.712 109.685 342.573 111.021 343.36 112.4C344.91 115.074 346.247 117.866 347.36 120.75C347.566 121.295 347.576 121.894 347.39 122.446C347.204 122.998 346.832 123.468 346.339 123.777C345.845 124.085 345.259 124.214 344.682 124.139C344.104 124.065 343.57 123.793 343.17 123.37L343.12 123.31C341.12 121.18 339.19 118.94 337.25 116.85C335.31 114.76 333.34 112.64 331.71 111.71C329.44 110.3 326.91 108.89 324.4 107.51L316.84 103.31C315.668 102.689 314.79 101.628 314.4 100.361C314.01 99.0929 314.14 97.7221 314.76 96.5499C315.381 95.3776 316.442 94.4999 317.709 94.1098C318.977 93.7198 320.348 93.8493 321.52 94.4699L321.46 94.5599Z" fill="white"/>
<path d="M349.73 125.739L348.88 123.609C348.88 123.609 348.41 120.889 346.72 120.129L341.72 120.919L341.89 121.359C342.35 122.359 342 124.189 341.55 125.649C341.1 127.109 341.86 127.299 342.5 127.009C342.86 126.849 343.21 126.199 343.59 125.509C343.776 125.857 343.987 126.191 344.22 126.509L345.45 128.199C345.707 128.549 346.087 128.789 346.514 128.871C346.94 128.952 347.382 128.87 347.75 128.639L349.11 127.769C349.428 127.551 349.663 127.231 349.776 126.863C349.888 126.494 349.872 126.097 349.73 125.739Z" fill="#48D189"/>
<path opacity="0.8" d="M349.73 125.739L348.88 123.609C348.88 123.609 348.41 120.889 346.72 120.129L341.72 120.919L341.89 121.359C342.35 122.359 342 124.189 341.55 125.649C341.1 127.109 341.86 127.299 342.5 127.009C342.86 126.849 343.21 126.199 343.59 125.509C343.776 125.857 343.987 126.191 344.22 126.509L345.45 128.199C345.707 128.549 346.087 128.789 346.514 128.871C346.94 128.952 347.382 128.87 347.75 128.639L349.11 127.769C349.428 127.551 349.663 127.231 349.776 126.863C349.888 126.494 349.872 126.097 349.73 125.739Z" fill="white"/>
<path opacity="0.3" d="M317.24 106.059L316.02 106.159L308.53 124.239C308.939 124.268 309.351 124.234 309.75 124.139C309.75 124.139 319.51 120.499 322.46 119.139C320.48 115.049 317.24 106.059 317.24 106.059Z" fill="#48D189"/>
<path d="M303.57 110.8C304.48 115.526 306.17 120.068 308.57 124.24C312.23 122.98 318.33 120.6 321.29 119.24C319.301 114.975 317.535 110.609 316 106.16C312.87 106.37 306 109 303.57 110.8Z" fill="white"/>
<path opacity="0.3" d="M311 114.71C310.854 115.199 310.566 115.633 310.173 115.959C309.779 116.284 309.298 116.485 308.791 116.537C308.283 116.589 307.771 116.489 307.32 116.25C306.869 116.011 306.499 115.644 306.257 115.195C306.015 114.745 305.911 114.234 305.96 113.726C306.008 113.218 306.206 112.736 306.529 112.34C306.851 111.945 307.284 111.654 307.772 111.504C308.26 111.354 308.781 111.353 309.27 111.5C309.925 111.696 310.475 112.145 310.799 112.747C311.124 113.348 311.196 114.055 311 114.71Z" fill="#48D189"/>
<path opacity="0.6" d="M312.91 111.27C312.871 111.437 312.783 111.588 312.656 111.704C312.53 111.819 312.371 111.894 312.202 111.918C312.032 111.942 311.859 111.914 311.705 111.838C311.552 111.762 311.425 111.641 311.341 111.492C311.257 111.342 311.22 111.171 311.236 111C311.251 110.829 311.318 110.667 311.427 110.535C311.536 110.403 311.683 110.307 311.848 110.26C312.012 110.212 312.187 110.216 312.35 110.27C312.553 110.335 312.723 110.474 312.827 110.659C312.931 110.845 312.961 111.063 312.91 111.27Z" fill="#48D189"/>
<path opacity="0.6" d="M315.15 110.399C315.127 110.515 315.079 110.625 315.011 110.722C314.943 110.818 314.855 110.9 314.753 110.96C314.652 111.021 314.538 111.06 314.421 111.074C314.303 111.089 314.184 111.079 314.071 111.044C313.958 111.01 313.853 110.953 313.763 110.875C313.673 110.798 313.601 110.703 313.55 110.596C313.499 110.49 313.471 110.373 313.467 110.255C313.464 110.137 313.485 110.019 313.53 109.909C313.562 109.804 313.615 109.705 313.685 109.62C313.755 109.534 313.841 109.463 313.939 109.411C314.036 109.359 314.143 109.327 314.253 109.316C314.363 109.306 314.474 109.317 314.58 109.349C314.794 109.414 314.974 109.561 315.081 109.757C315.187 109.954 315.212 110.185 315.15 110.399Z" fill="#48D189"/>
<path opacity="0.5" d="M318.29 118.189L309.04 121.839L308.49 120.019L317.73 116.369L318.29 118.189Z" fill="#48D189"/>
<path opacity="0.2" d="M267.26 257.171C267.239 262.994 266.676 268.803 265.58 274.521C264.4 279.661 262.567 283.421 260.08 285.801C258.922 286.951 257.546 287.859 256.034 288.472C254.521 289.085 252.902 289.391 251.27 289.371C246.13 289.371 242.207 286.568 239.5 280.961C239.024 279.954 238.62 278.915 238.29 277.851C232.574 282.761 227.251 288.111 222.37 293.851L217.06 300.111C219.918 303.008 223.215 305.434 226.83 307.301C233.057 310.521 241.23 312.135 251.35 312.141C253.13 312.141 254.85 312.091 256.52 311.991C262.643 302.932 267.709 293.202 271.62 282.991L286.47 244.271L267.26 257.171Z" fill="black"/>
<path d="M133.39 310.001L150.89 327.501L199.89 281.331C183 274.881 150.16 293.191 133.39 310.001Z" fill="#263238"/>
<path d="M194.42 371C188.83 365.4 176.92 353.5 176.92 353.5L223.09 304.5C229.5 321.35 211.19 354.22 194.42 371Z" fill="#263238"/>
<path d="M261.4 260.701L280.49 223.891L243.68 243.001C231.856 249.133 220.939 256.873 211.24 266.001L148.49 325.071L179.32 355.901L238.39 293.151C247.522 283.449 255.266 272.528 261.4 260.701Z" fill="#48D189"/>
<path opacity="0.6" d="M261.4 260.701L280.49 223.891L243.68 243.001C231.856 249.133 220.939 256.873 211.24 266.001L148.49 325.071L179.32 355.901L238.39 293.151C247.522 283.449 255.266 272.528 261.4 260.701Z" fill="white"/>
<path d="M222.2 295.081C229.325 295.081 235.1 289.306 235.1 282.181C235.1 275.057 229.325 269.281 222.2 269.281C215.076 269.281 209.3 275.057 209.3 282.181C209.3 289.306 215.076 295.081 222.2 295.081Z" fill="white"/>
<path d="M222.2 290.471C226.778 290.471 230.49 286.759 230.49 282.181C230.49 277.602 226.778 273.891 222.2 273.891C217.621 273.891 213.91 277.602 213.91 282.181C213.91 286.759 217.621 290.471 222.2 290.471Z" fill="#48D189"/>
<path opacity="0.3" d="M189.75 344.821L159.56 314.631L184.28 291.371L213.01 320.111L189.75 344.821Z" fill="#48D189"/>
<path d="M140.22 337.621C117.62 339.451 110.13 353.921 107.57 373.151C106.27 382.961 105.69 392.891 97.46 398.631C96.9649 398.968 96.5921 399.455 96.3975 400.022C96.2029 400.588 96.1969 401.202 96.3805 401.771C96.564 402.341 96.9273 402.836 97.4157 403.182C97.9042 403.528 98.4916 403.707 99.09 403.691C129.43 402.741 143.58 387.891 145.36 381.691C144.893 384.932 144.057 388.109 142.87 391.161C142.652 391.7 142.609 392.293 142.748 392.857C142.887 393.422 143.2 393.928 143.643 394.303C144.087 394.679 144.637 394.905 145.217 394.95C145.796 394.994 146.375 394.855 146.87 394.551C155.38 389.221 166.06 379.401 166.77 363.471C160.51 354.601 140.22 337.621 140.22 337.621Z" fill="#48D189"/>
<path opacity="0.2" d="M140.22 337.621C117.62 339.451 110.13 353.921 107.57 373.151C106.27 382.961 105.69 392.891 97.46 398.631C96.9649 398.968 96.5921 399.455 96.3975 400.022C96.2029 400.588 96.1969 401.202 96.3805 401.771C96.564 402.341 96.9273 402.836 97.4157 403.182C97.9042 403.528 98.4916 403.707 99.09 403.691C129.43 402.741 143.58 387.891 145.36 381.691C144.893 384.932 144.057 388.109 142.87 391.161C142.652 391.7 142.609 392.293 142.748 392.857C142.887 393.422 143.2 393.928 143.643 394.303C144.087 394.679 144.637 394.905 145.217 394.95C145.796 394.994 146.375 394.855 146.87 394.551C155.38 389.221 166.06 379.401 166.77 363.471C160.51 354.601 140.22 337.621 140.22 337.621Z" fill="white"/>
<path d="M170.28 370.3L134.08 334.1L153.36 329.93L174.45 351.02L170.28 370.3Z" fill="#48D189"/>
</svg>
