<svg width="15" height="19" viewBox="0 0 15 19" fill="none" xmlns="http://www.w3.org/2000/svg">
<path fill-rule="evenodd" clip-rule="evenodd" d="M14.3246 7.56022C14.6077 5.66459 13.1644 4.64555 11.1909 3.96575L11.8311 1.39789L10.2676 1.00835L9.64432 3.50854C9.23385 3.40614 8.81181 3.30954 8.39244 3.21382L9.02016 0.697159L7.45799 0.307617L6.81736 2.87459C6.47723 2.79712 6.14334 2.72055 5.81924 2.63997L5.82102 2.63196L3.66541 2.09372L3.2496 3.76319C3.2496 3.76319 4.40932 4.02896 4.38484 4.04544C5.0179 4.20348 5.13276 4.6224 5.11317 4.95452L4.38395 7.87986C4.42757 7.89099 4.48411 7.90702 4.54644 7.93195L4.38172 7.89099L3.35912 11.989C3.28165 12.1813 3.08533 12.4698 2.64281 12.3603C2.65839 12.383 1.50668 12.0767 1.50668 12.0767L0.730713 13.8663L2.76523 14.3734C2.99491 14.431 3.22179 14.4902 3.44618 14.5487C3.59151 14.5866 3.73578 14.6243 3.8791 14.661L3.23224 17.2587L4.79352 17.6482L5.4346 15.0786C5.86064 15.1943 6.27467 15.3012 6.67979 15.4018L6.04139 17.9594L7.60445 18.349L8.25132 15.7566C10.9167 16.261 12.9214 16.0576 13.7641 13.6473C14.4439 11.7063 13.7307 10.5866 12.3284 9.85606C13.3496 9.61967 14.1189 8.94788 14.3242 7.56022H14.3246ZM10.7528 12.5682C10.3091 14.3497 7.52 13.6125 6.245 13.2756C6.13082 13.2454 6.02879 13.2184 5.94167 13.1968L6.8 9.7559C6.90648 9.78247 7.03658 9.81167 7.18396 9.84474C8.503 10.1407 11.2062 10.7473 10.7533 12.5682H10.7528ZM7.44909 8.24803C8.51296 8.53185 10.8319 9.15051 11.2359 7.53216C11.6489 5.87653 9.39395 5.37752 8.29266 5.13381C8.16886 5.10641 8.05963 5.08224 7.97042 5.06002L7.19222 8.1808C7.26586 8.19915 7.35228 8.2222 7.44909 8.24803Z" fill="#F7931A"/>
</svg>
