<svg width="20" height="21" viewBox="0 0 20 21" fill="none" xmlns="http://www.w3.org/2000/svg">
<path d="M14.1666 5.50008H18.3333V7.16675H16.6666V18.0001C16.6666 18.2211 16.5788 18.4331 16.4225 18.5893C16.2663 18.7456 16.0543 18.8334 15.8333 18.8334H4.16663C3.94561 18.8334 3.73365 18.7456 3.57737 18.5893C3.42109 18.4331 3.33329 18.2211 3.33329 18.0001V7.16675H1.66663V5.50008H5.83329V3.00008C5.83329 2.77907 5.92109 2.56711 6.07737 2.41083C6.23365 2.25455 6.44561 2.16675 6.66663 2.16675H13.3333C13.5543 2.16675 13.7663 2.25455 13.9225 2.41083C14.0788 2.56711 14.1666 2.77907 14.1666 3.00008V5.50008ZM7.49996 9.66675V14.6667H9.16663V9.66675H7.49996ZM10.8333 9.66675V14.6667H12.5V9.66675H10.8333ZM7.49996 3.83341V5.50008H12.5V3.83341H7.49996Z" fill="#EB5757"/>
</svg>
