<svg width="300" height="300" viewBox="0 0 300 300" fill="none" xmlns="http://www.w3.org/2000/svg">
<path d="M255.984 140.339C252.836 142.234 249.168 143.084 245.507 142.766C241.846 142.448 238.379 140.98 235.604 138.571C232.829 136.161 230.888 132.936 230.06 129.355C229.231 125.775 229.557 122.025 230.991 118.641C232.425 115.258 234.893 112.415 238.042 110.521C241.191 108.627 244.859 107.778 248.52 108.097C252.181 108.415 255.647 109.885 258.422 112.295C261.196 114.705 263.136 117.931 263.964 121.511C264.797 125.09 264.474 128.841 263.04 132.225C261.606 135.608 259.135 138.449 255.984 140.339Z" fill="#EBEBEB"/>
<path d="M252.33 123.51C252.317 124.556 251.994 125.575 251.402 126.438C250.81 127.3 249.975 127.968 249.004 128.357C248.032 128.745 246.967 128.837 245.944 128.621C244.92 128.404 243.983 127.889 243.252 127.141C242.521 126.392 242.028 125.443 241.836 124.415C241.644 123.386 241.761 122.324 242.173 121.362C242.585 120.4 243.272 119.581 244.149 119.01C245.025 118.439 246.052 118.14 247.098 118.152C247.794 118.16 248.481 118.304 249.12 118.578C249.76 118.852 250.339 119.249 250.825 119.746C251.311 120.244 251.694 120.832 251.952 121.478C252.21 122.124 252.339 122.814 252.33 123.51Z" fill="white"/>
<path d="M256.008 138.156V140.34C253.238 142.004 250.06 142.865 246.829 142.825C243.597 142.784 240.441 141.845 237.714 140.112L237.744 137.934C237.759 136.733 238.01 135.547 238.483 134.443C238.956 133.339 239.641 132.34 240.501 131.501C241.36 130.662 242.376 130.001 243.491 129.555C244.606 129.109 245.798 128.886 246.999 128.901C248.2 128.916 249.386 129.167 250.49 129.64C251.594 130.113 252.593 130.798 253.432 131.658C254.271 132.517 254.932 133.533 255.378 134.648C255.824 135.763 256.047 136.955 256.032 138.156H256.008Z" fill="white"/>
<path d="M60.354 88.554C58.5376 89.6472 56.4524 90.2123 54.3326 90.1858C52.2128 90.1593 50.1424 89.5423 48.354 88.404C46.2622 87.0726 44.6615 85.0955 43.7946 82.7724C42.9277 80.4493 42.8418 77.9069 43.55 75.5306C44.2582 73.1544 45.7219 71.0738 47.7191 69.6043C49.7164 68.1348 52.1383 67.3566 54.6176 67.3876C57.097 67.4186 59.4987 68.2571 61.4585 69.7761C63.4184 71.295 64.8296 73.4115 65.4782 75.8047C66.1268 78.198 65.9774 80.7374 65.0527 83.0381C64.128 85.3388 62.4784 87.2753 60.354 88.554Z" fill="#EBEBEB"/>
<path d="M57.96 77.5257C57.9528 78.2118 57.7423 78.8804 57.355 79.4468C56.9678 80.0132 56.4212 80.452 55.7845 80.7077C55.1477 80.9634 54.4495 81.0245 53.778 80.8832C53.1066 80.7419 52.4922 80.4046 52.0125 79.914C51.5328 79.4234 51.2094 78.8015 51.0833 78.1271C50.9571 77.4526 51.0339 76.7559 51.3038 76.1251C51.5738 75.4943 52.0248 74.9577 52.5998 74.5833C53.1748 74.2089 53.8479 74.0135 54.534 74.0217C54.9891 74.0264 55.4389 74.1208 55.8575 74.2996C56.2761 74.4783 56.6554 74.7378 56.9736 75.0633C57.2919 75.3887 57.5428 75.7737 57.712 76.1963C57.8813 76.6188 57.9655 77.0706 57.96 77.5257Z" fill="white"/>
<path d="M60.372 87.1202V88.5542C58.5557 89.6474 56.4705 90.2125 54.3507 90.186C52.2309 90.1595 50.1605 89.5425 48.372 88.4042V86.9822C48.3903 85.3909 49.04 83.872 50.1782 82.7597C51.3163 81.6475 52.8497 81.0329 54.441 81.0512C56.0323 81.0695 57.5512 81.7192 58.6634 82.8573C59.7757 83.9955 60.3903 85.5289 60.372 87.1202Z" fill="white"/>
<path d="M111.27 90.192H35.286V38.208H111.27V90.192ZM35.886 89.592H110.67V38.808H35.886V89.592Z" fill="#EBEBEB"/>
<path d="M41.226 41.5559C41.226 41.855 41.1373 42.1473 40.9712 42.396C40.8051 42.6446 40.5689 42.8384 40.2926 42.9528C40.0164 43.0673 39.7123 43.0972 39.419 43.0389C39.1258 42.9806 38.8563 42.8365 38.6449 42.6251C38.4334 42.4136 38.2894 42.1442 38.2311 41.8509C38.1727 41.5576 38.2027 41.2536 38.3171 40.9773C38.4316 40.701 38.6254 40.4649 38.874 40.2988C39.1227 40.1326 39.415 40.0439 39.714 40.0439C40.115 40.0439 40.4996 40.2032 40.7832 40.4868C41.0667 40.7704 41.226 41.1549 41.226 41.5559Z" fill="#A6A6A6"/>
<path d="M47.4 41.5559C47.4 41.855 47.3114 42.1473 47.1452 42.396C46.9791 42.6446 46.7429 42.8384 46.4667 42.9528C46.1904 43.0673 45.8864 43.0972 45.5931 43.0389C45.2998 42.9806 45.0303 42.8365 44.8189 42.6251C44.6074 42.4136 44.4634 42.1442 44.4051 41.8509C44.3468 41.5576 44.3767 41.2536 44.4911 40.9773C44.6056 40.701 44.7994 40.4649 45.048 40.2988C45.2967 40.1326 45.589 40.0439 45.888 40.0439C46.289 40.0439 46.6736 40.2032 46.9572 40.4868C47.2407 40.7704 47.4 41.1549 47.4 41.5559Z" fill="#EBEBEB"/>
<path d="M53.574 41.5559C53.574 41.855 53.4853 42.1473 53.3192 42.396C53.153 42.6446 52.9169 42.8384 52.6406 42.9528C52.3643 43.0673 52.0603 43.0972 51.767 43.0389C51.4737 42.9806 51.2043 42.8365 50.9928 42.6251C50.7814 42.4136 50.6374 42.1442 50.579 41.8509C50.5207 41.5576 50.5506 41.2536 50.6651 40.9773C50.7795 40.701 50.9733 40.4649 51.222 40.2988C51.4706 40.1326 51.7629 40.0439 52.062 40.0439C52.463 40.0439 52.8476 40.2032 53.1311 40.4868C53.4147 40.7704 53.574 41.1549 53.574 41.5559Z" fill="#48D189"/>
<path d="M110.97 44.2197H35.586V44.8197H110.97V44.2197Z" fill="#EBEBEB"/>
<path d="M81.9819 103.832L42.3947 109.233L45.8203 134.339L85.4075 128.937L81.9819 103.832Z" fill="#EBEBEB"/>
<path d="M81.978 103.842C80.586 105.588 79.158 107.274 77.778 108.996C76.398 110.718 74.922 112.386 73.488 114.066C72.054 115.746 70.488 117.558 68.976 119.286L68.838 119.454C67.506 120.978 66.166 122.504 64.818 124.032L64.62 124.248L64.374 124.092C62.67 122.982 60.978 121.872 59.28 120.75L59.1 120.636C57.18 119.37 55.26 118.098 53.346 116.802C51.432 115.506 49.686 114.33 47.862 113.076C46.038 111.822 44.22 110.55 42.414 109.236C44.292 110.316 46.152 111.462 48.012 112.578C49.872 113.694 51.738 114.858 53.598 116.022C55.662 117.306 57.726 118.612 59.79 119.94C61.338 120.924 62.884 121.924 64.428 122.94C65.628 121.566 66.87 120.192 68.1 118.836C69.738 117.036 71.37 115.2 73.02 113.4C74.496 111.8 75.98 110.2 77.472 108.6C78.972 106.986 80.454 105.384 81.978 103.842Z" fill="white"/>
<path d="M59.904 120.504L59.862 120.552C59.682 120.756 59.496 120.966 59.31 121.152C58.434 122.124 57.51 123.066 56.598 123.99C55.47 125.124 54.306 126.222 53.13 127.314C51.954 128.406 50.766 129.456 49.53 130.494C48.294 131.532 47.07 132.558 45.78 133.494C46.836 132.294 47.952 131.13 49.08 130.002C50.208 128.874 51.378 127.764 52.548 126.678C53.718 125.592 54.948 124.524 56.148 123.486C57.12 122.658 58.11 121.836 59.148 121.056C59.382 120.87 59.622 120.696 59.862 120.516L59.904 120.504Z" fill="white"/>
<path d="M85.2 128.154C83.7 127.554 82.2 126.924 80.784 126.252C79.368 125.58 77.898 124.86 76.47 124.14C75.042 123.42 73.632 122.658 72.27 121.866C71.136 121.23 70.008 120.57 68.91 119.868L68.202 119.418L68.154 119.382H68.214L69.048 119.712C70.248 120.192 71.406 120.72 72.57 121.26C74.028 121.932 75.456 122.646 76.878 123.372C78.3 124.098 79.716 124.854 81.108 125.646C82.5 126.438 83.85 127.266 85.2 128.154Z" fill="white"/>
<path d="M255 37.3438H206.004V68.4177H255V37.3438Z" fill="#EBEBEB"/>
<path d="M255 37.3438C253.02 39.2338 251.004 41.0457 249 42.9117C246.996 44.7777 244.974 46.5537 242.952 48.3597C240.93 50.1657 238.722 52.1038 236.598 53.9517L236.412 54.1318C234.536 55.7678 232.654 57.4018 230.766 59.0338L230.484 59.2617L230.214 59.0338C228.33 57.4018 226.452 55.7658 224.58 54.1258L224.382 53.9517C222.25 52.1038 220.13 50.2358 218.022 48.3478C216.006 46.5478 213.99 44.7477 211.98 42.9117C209.97 41.0757 207.972 39.2338 205.98 37.3438C208.086 38.9638 210.18 40.6678 212.232 42.3298C214.284 43.9918 216.384 45.7137 218.442 47.4357C220.742 49.3357 223.036 51.2657 225.324 53.2258C227.04 54.6778 228.756 56.1378 230.472 57.6058C232.176 56.1418 233.892 54.6718 235.608 53.2258C237.896 51.2818 240.19 49.3517 242.49 47.4357C244.546 45.7237 246.614 44.0257 248.694 42.3417C250.83 40.6677 252.894 38.9638 255 37.3438Z" fill="white"/>
<path d="M225.42 53.9336C225.401 53.951 225.381 53.9671 225.36 53.9816C225.102 54.2036 224.85 54.4256 224.592 54.6356C223.362 55.6736 222.102 56.6696 220.824 57.6356C219.264 58.8356 217.668 59.9696 216.06 61.1036C214.452 62.2376 212.832 63.3176 211.176 64.3796C209.52 65.4416 207.852 66.4736 206.124 67.4216C207.606 66.1196 209.124 64.9076 210.714 63.7256C212.304 62.5436 213.876 61.3916 215.472 60.2576C217.068 59.1236 218.712 58.0376 220.368 56.9756C221.682 56.1296 223.02 55.2956 224.394 54.5156C224.706 54.3356 225.024 54.1556 225.348 53.9816L225.42 53.9336Z" fill="white"/>
<path d="M254.886 67.416C253.152 66.468 251.478 65.43 249.828 64.374C248.178 63.318 246.552 62.208 244.932 61.098C243.312 59.988 241.734 58.824 240.174 57.63C238.902 56.67 237.642 55.68 236.424 54.63C236.154 54.408 235.902 54.186 235.644 53.964C235.623 53.9495 235.603 53.9335 235.584 53.916L235.656 53.952L236.61 54.492C237.984 55.272 239.316 56.106 240.636 56.952C242.292 58.014 243.912 59.118 245.526 60.234C247.14 61.35 248.724 62.508 250.284 63.702C251.844 64.896 253.398 66.114 254.886 67.416Z" fill="white"/>
<path d="M141.654 272.328C189.103 272.328 227.568 269.349 227.568 265.674C227.568 262 189.103 259.021 141.654 259.021C94.205 259.021 55.74 262 55.74 265.674C55.74 269.349 94.205 272.328 141.654 272.328Z" fill="#EBEBEB"/>
<path d="M170.736 0H170.136V82.536H170.736V0Z" fill="#C7C7C7"/>
<path d="M145.944 106.146L147.918 110.478H192.966L194.928 106.146L175.752 92.8682H165.126L145.944 106.146Z" fill="#48D189"/>
<path d="M163.794 80.082L165.126 92.868H175.752L177.084 80.082H163.794Z" fill="#48D189"/>
<path opacity="0.1" d="M145.95 106.146L147.918 110.478H192.972L194.934 106.146H145.95Z" fill="black"/>
<path opacity="0.1" d="M165.126 92.8681L164.982 91.4942L175.974 90.7021L175.752 92.8681H165.126Z" fill="black"/>
<path d="M129.858 0H129.258V56.562H129.858V0Z" fill="#C7C7C7"/>
<path d="M105.066 80.1724L107.04 84.5044H152.088L154.05 80.1724L134.874 66.9004H124.248L105.066 80.1724Z" fill="#48D189"/>
<path d="M122.916 54.1084L124.248 66.9004H134.874L136.206 54.1084H122.916Z" fill="#48D189"/>
<path opacity="0.1" d="M105.072 80.1777L107.04 84.5037H152.088L154.056 80.1777H105.072Z" fill="black"/>
<path opacity="0.1" d="M124.248 66.9001L124.092 65.4181L135.102 64.7041L134.874 66.9001H124.248Z" fill="black"/>
<path d="M232.38 188.22C232.56 185.19 232.989 182.18 233.664 179.22C234.3 176.55 235.2 173.82 236.886 171.606C237.627 170.566 238.567 169.683 239.652 169.007C240.736 168.332 241.943 167.877 243.204 167.67C245.682 167.37 248.004 168.474 249.858 170.028C252.15 171.96 253.908 174.522 255.558 177C257.365 179.774 259.007 182.651 260.478 185.616C260.532 185.712 260.382 185.796 260.334 185.7C259.056 183.189 257.584 180.782 255.93 178.5C254.422 176.31 252.726 174.257 250.86 172.362C249.162 170.706 247.002 169.152 244.536 169.074C242.07 168.996 239.826 170.37 238.356 172.26C236.706 174.372 235.866 177.006 235.236 179.574C234.599 182.389 234.185 185.25 234 188.13C233.514 194.076 233.4 200.058 233.25 206.016C233.172 209.388 233.13 212.766 233.094 216.138L233.058 221.268C233.118 222.919 233.052 224.572 232.86 226.212C232.8 226.542 232.26 226.512 232.2 226.212C232 224.659 231.926 223.092 231.978 221.526C231.954 219.906 231.934 218.286 231.918 216.666C231.886 213.518 231.874 210.368 231.882 207.216C231.87 200.874 231.948 194.532 232.38 188.22Z" fill="#263238"/>
<path d="M240.876 183.738C241.188 182.058 241.758 179.868 242.712 178.566C244.434 176.226 246.312 177.24 244.578 179.832C243.312 181.757 242.492 183.94 242.178 186.222C242.178 186.222 245.07 190.356 248.562 192.39C248.412 190.8 247.962 188.358 248.274 186C248.946 180.894 252.036 181.2 251.274 185.238C250.674 188.49 250.41 191.946 250.578 193.44C251.745 194.197 252.998 194.811 254.31 195.27C254.106 194.67 253.896 193.968 253.662 193.104C252.42 188.526 255.462 187.104 255.57 189.678C255.772 191.874 256.174 194.047 256.77 196.17C258.444 196.734 259.836 197.118 260.682 197.412C262.882 198.228 264.847 199.571 266.406 201.324C267.996 199.888 269.317 198.179 270.306 196.278C269.238 195.36 267.552 193.998 265.212 192.342C260.826 189.246 262.35 185.334 265.812 187.764C268.32 189.522 270.264 192.774 271.152 194.442C272.335 191.534 273.007 188.442 273.138 185.304C269.694 182.07 261.168 177.558 263.736 177.558C266.052 177.558 271.224 180.948 273.12 182.256C273.075 181.368 272.979 180.482 272.832 179.604C269.586 177.474 259.032 174.168 260.718 173.214C262.56 172.17 269.922 175.578 272.148 176.652C271.73 175.206 271.07 173.841 270.198 172.614C265.71 166.614 257.598 164.544 254.094 165.684C251.598 166.494 252.294 172.83 251.79 172.614C241.746 168.6 237.186 171.432 240.876 183.738ZM265.476 183.042C266.19 182.184 269.478 184.716 268.53 186.096C267.582 187.476 264.546 184.146 265.464 183.042H265.476ZM248.274 177.642C249.138 178.194 247.86 181.392 246.522 180.426C245.4 179.598 247.392 177.084 248.262 177.642H248.274Z" fill="#48D189"/>
<path d="M249.6 178.62C250.05 177.726 250.524 176.82 251.04 175.974C251.515 175.123 252.069 174.32 252.696 173.574C252.558 173.4 252.42 173.22 252.27 173.046C252.21 172.974 252.312 172.878 252.372 172.944C252.54 173.136 252.702 173.334 252.864 173.544C252.881 173.553 252.896 173.564 252.908 173.579C252.921 173.593 252.93 173.61 252.936 173.628C253.556 174.372 254.142 175.134 254.694 175.914C255.681 176.141 256.655 176.424 257.61 176.76C258.594 177.09 259.572 177.432 260.526 177.834C260.628 177.876 260.574 178.044 260.478 177.996C259.53 177.582 258.57 177.174 257.586 176.844C256.602 176.514 255.714 176.286 254.772 176.022C255.078 176.454 255.372 176.886 255.666 177.33C257.438 177.891 259.161 178.593 260.82 179.43C262.56 180.258 264.234 181.23 265.902 182.184C265.998 182.238 265.902 182.388 265.812 182.328C264.172 181.37 262.484 180.496 260.754 179.712C259.14 178.956 257.472 178.338 255.846 177.618C259.944 184.008 262.398 191.388 265.686 198.216C265.734 198.318 265.578 198.396 265.536 198.3C264.534 195.9 263.376 193.572 262.284 191.214C261.306 189.096 260.346 186.972 259.368 184.854C259.08 184.254 258.768 183.618 258.48 183.006C258.66 186.42 258.588 189.894 259.152 193.266C259.152 193.277 259.15 193.288 259.146 193.298C259.141 193.308 259.135 193.318 259.127 193.325C259.12 193.333 259.11 193.339 259.1 193.344C259.09 193.348 259.079 193.35 259.068 193.35C259.057 193.35 259.046 193.348 259.036 193.344C259.026 193.339 259.016 193.333 259.009 193.325C259.001 193.318 258.995 193.308 258.99 193.298C258.986 193.288 258.984 193.277 258.984 193.266C258.744 189.618 258.102 186.024 258.126 182.358C258.126 182.358 258.126 182.328 258.126 182.31C257.43 180.912 256.686 179.538 255.888 178.2C254.532 181.392 253.104 184.638 252.474 188.07C252.474 188.172 252.282 188.13 252.306 188.022C253.23 184.584 254.106 181.14 255.744 177.96C254.875 176.512 253.911 175.123 252.858 173.802C252.402 174.648 251.82 175.452 251.304 176.262C250.788 177.072 250.302 177.852 249.834 178.662C248.825 180.384 247.968 182.191 247.272 184.062C247.23 184.164 247.068 184.11 247.11 184.014C247.89 182.22 248.682 180.39 249.6 178.62Z" fill="#263238"/>
<path d="M217.284 186.397C219.912 183.757 222.966 180.301 227.028 180.307C230.952 180.307 233.838 183.469 235.494 186.727C237.228 190.135 237.852 193.993 238.344 197.743C238.924 202.236 239.276 206.756 239.4 211.285C239.472 213.799 239.46 216.319 239.4 218.833C239.392 221.382 239.192 223.927 238.8 226.447C238.728 226.849 238.074 226.867 238.05 226.447C237.93 224.329 238.014 222.199 238.05 220.081C238.086 217.963 238.05 215.881 237.954 213.823C237.798 209.623 237.492 205.423 236.994 201.223C236.562 197.557 236.22 193.795 235.122 190.255C234.138 187.063 232.284 183.415 229.05 182.011C224.634 180.103 220.32 183.595 217.434 186.547C217.338 186.601 217.2 186.475 217.284 186.397Z" fill="#263238"/>
<path d="M203.874 192.289C203.874 192.829 203.922 193.357 203.958 193.879C205.222 192.931 206.703 192.312 208.266 192.079C211.998 191.683 211.758 194.515 209.268 194.635C207.513 194.657 205.778 195.005 204.15 195.661C204.75 200.587 206.112 204.547 206.316 204.601C209.626 204.429 212.92 204.028 216.174 203.401C215.244 201.421 213.132 198.793 214.212 198.601C215.292 198.409 216.462 200.725 217.062 203.239C219.51 202.771 221.918 202.111 224.262 201.265C222.618 199.843 220.062 198.073 221.052 197.323C222.042 196.573 224.052 199.057 225.252 200.869C226.352 200.42 227.393 199.84 228.354 199.141C226.14 195.889 220.752 195.229 221.454 192.883C222.156 190.537 227.202 193.789 229.464 198.139C232.122 195.379 232.902 191.479 232.62 188.143C230.304 187.873 225.852 188.365 226.176 186.703C226.5 185.041 229.716 185.353 232.35 186.325C232.108 185.004 231.58 183.753 230.802 182.659C228.366 179.527 220.914 183.511 220.914 183.511C220.914 183.511 221.712 176.023 218.874 174.733C217.236 173.989 214.344 173.995 211.446 175.699C213.072 175.837 215.046 176.353 215.826 177.499C216.84 178.933 215.226 179.719 214.23 179.053C213.516 178.585 212.184 177.103 209.778 176.905C208.751 177.779 207.846 178.788 207.09 179.905C206.814 180.295 206.562 180.703 206.304 181.147C207.679 180.526 209.175 180.218 210.684 180.245C212.192 180.272 213.676 180.633 215.028 181.303C218.256 182.905 216.45 186.259 213.672 184.957C210.894 183.655 208.272 182.371 205.302 183.109C204.258 185.745 203.762 188.567 203.844 191.401C205.29 190.348 206.917 189.569 208.644 189.103C211.854 188.263 212.844 190.177 209.298 190.537C207.389 190.743 205.543 191.34 203.874 192.289ZM207.78 187.135C207.558 186.091 209.832 185.797 210.21 186.637C210.528 187.357 207.996 188.173 207.78 187.135ZM227.256 192.895C227.472 192.325 228.996 192.973 228.858 193.681C228.666 194.623 227.046 193.459 227.256 192.895ZM216.504 196.543C217.614 196.099 219.348 198.859 218.136 199.489C216.924 200.119 215.592 196.909 216.504 196.543Z" fill="#48D189"/>
<path d="M206.748 204.055C208.422 201.259 210.078 198.451 211.836 195.703C212.652 194.425 213.51 193.171 214.398 191.941L214.002 191.845L213.336 191.719C212.82 191.629 212.304 191.557 211.782 191.503C211.26 191.449 210.804 191.425 210.312 191.419C209.788 191.39 209.263 191.418 208.746 191.503C208.735 191.503 208.724 191.498 208.716 191.49C208.708 191.483 208.704 191.472 208.704 191.461C208.704 191.45 208.708 191.439 208.716 191.431C208.724 191.423 208.735 191.419 208.746 191.419C209.268 191.419 209.802 191.371 210.324 191.365C210.846 191.359 211.344 191.365 211.848 191.401C212.324 191.426 212.799 191.476 213.27 191.551C213.534 191.587 213.792 191.635 214.05 191.683C214.21 191.708 214.368 191.742 214.524 191.785C215.43 190.537 216.372 189.319 217.344 188.119C214.451 186.714 211.372 185.73 208.2 185.197C208.146 185.197 208.17 185.107 208.2 185.113C211.425 185.56 214.559 186.512 217.488 187.933L219.102 185.971C219.702 185.245 220.356 184.531 220.902 183.763C220.938 183.709 221.01 183.763 220.974 183.811C220.219 184.637 219.51 185.505 218.85 186.409C220.047 187.239 221.186 188.152 222.258 189.139C223.37 190.127 224.454 191.147 225.51 192.199C225.552 192.235 225.51 192.295 225.45 192.259C224.406 191.221 223.326 190.231 222.198 189.289C221.07 188.347 219.876 187.489 218.742 186.559C218.484 186.907 218.226 187.249 217.962 187.585C217.83 187.753 217.704 187.927 217.572 188.101L217.542 188.137C217.104 188.701 216.672 189.271 216.24 189.841C216.747 190.574 217.181 191.356 217.536 192.175C217.908 192.961 218.238 193.777 218.538 194.575C219.137 196.284 219.602 198.037 219.93 199.819C219.93 199.867 219.864 199.891 219.852 199.819C219.495 198.064 218.985 196.343 218.328 194.677C218.004 193.825 217.632 192.991 217.254 192.157C216.876 191.323 216.48 190.675 216.156 189.907C215.784 190.405 215.406 190.909 215.04 191.413C214.932 191.557 214.83 191.707 214.728 191.857C214.728 191.887 214.728 191.929 214.692 191.935C213.54 193.537 212.448 195.181 211.386 196.843C211.449 196.956 211.497 197.077 211.53 197.203C211.596 197.407 211.662 197.611 211.722 197.803C211.841 198.213 211.939 198.63 212.016 199.051C212.082 199.441 212.142 199.843 212.178 200.251C212.188 200.704 212.222 201.157 212.28 201.607C212.28 201.673 212.184 201.679 212.196 201.607C212.226 201.185 212.196 200.76 212.106 200.347C212.046 199.915 211.962 199.483 211.866 199.057C211.77 198.631 211.668 198.289 211.554 197.911C211.5 197.725 211.44 197.533 211.374 197.347C211.308 197.161 211.29 197.143 211.254 197.041C210.756 197.821 210.264 198.601 209.778 199.393C208.818 200.959 207.864 202.525 206.898 204.091C206.893 204.111 206.881 204.128 206.863 204.138C206.846 204.149 206.825 204.153 206.805 204.148C206.785 204.143 206.768 204.13 206.757 204.113C206.747 204.096 206.743 204.075 206.748 204.055Z" fill="#263238"/>
<path d="M232.554 225.54C232.596 223.956 232.848 222.354 233.022 220.782C233.196 219.21 233.37 217.614 233.538 216.03C233.868 212.976 234.048 209.856 234.738 206.862C235.269 204.258 236.567 201.872 238.464 200.01C239.448 199.026 240.74 198.41 242.124 198.264C243.515 198.226 244.879 198.648 246.006 199.464C247.287 200.412 248.392 201.578 249.27 202.908C250.219 204.223 251.071 205.604 251.82 207.042C251.82 207.096 251.76 207.132 251.73 207.078C250.318 204.678 248.446 202.58 246.222 200.904C245.231 200.091 244.023 199.588 242.748 199.458C242.126 199.447 241.508 199.56 240.93 199.791C240.352 200.022 239.826 200.366 239.382 200.802C237.534 202.41 236.46 204.774 235.824 207.096C235.068 209.844 234.828 212.742 234.45 215.562C234.222 217.236 234.012 218.916 233.79 220.596C233.568 222.276 233.43 223.974 233.076 225.618C233.051 225.671 233.009 225.715 232.956 225.743C232.904 225.771 232.845 225.781 232.786 225.772C232.728 225.763 232.674 225.736 232.632 225.694C232.59 225.653 232.563 225.599 232.554 225.54Z" fill="#263238"/>
<path d="M240.354 213.229C240.843 213.892 241.423 214.484 242.076 214.987C241.818 213.445 241.476 210.691 242.28 209.233C243.48 206.959 244.932 208.093 244.206 210.067C243.483 211.849 243.088 213.748 243.042 215.671C244.692 216.703 246.458 217.537 248.304 218.155C248.109 217.265 248.05 216.35 248.13 215.443C248.376 213.013 250.236 213.043 249.75 215.587C249.57 216.564 249.485 217.557 249.498 218.551C252.182 219.378 254.927 219.998 257.706 220.405C259.124 218.563 260.268 216.526 261.102 214.357C259.122 213.865 255.102 213.757 255.204 212.335C255.318 210.433 259.194 211.897 261.468 213.277C261.986 211.622 262.217 209.891 262.152 208.159C260.372 207.664 258.543 207.362 256.698 207.259C252.624 206.905 252.822 204.595 255.774 204.649C257.952 204.691 260.706 206.023 262.014 206.719C261.162 201.175 256.938 197.629 253.548 197.491C247.854 197.263 249.906 204.349 249.906 204.349C249.906 204.349 246.042 201.637 242.4 201.709C238.758 201.781 236.46 207.811 240.354 213.229ZM255.564 202.981C255.438 202.183 257.964 201.991 258.114 203.017C258.264 204.163 255.69 203.791 255.564 202.981ZM259.656 211.297C259.602 210.775 260.7 210.697 260.946 211.339C261.114 211.801 259.698 211.801 259.656 211.297ZM246 211.801C246.858 211.921 247.35 214.993 245.868 214.933C244.722 214.867 245.25 211.681 246 211.801Z" fill="#48D189"/>
<path d="M247.164 215.19C247.308 214.806 247.434 214.422 247.554 214.032C247.446 214.422 247.344 214.818 247.272 215.232C247.269 215.239 247.265 215.246 247.26 215.251C247.255 215.257 247.248 215.261 247.241 215.264C247.234 215.267 247.227 215.269 247.219 215.269C247.212 215.269 247.204 215.268 247.197 215.265C247.19 215.262 247.183 215.258 247.178 215.253C247.172 215.248 247.168 215.242 247.165 215.235C247.162 215.228 247.16 215.22 247.16 215.212C247.16 215.205 247.161 215.197 247.164 215.19Z" fill="#263238"/>
<path d="M248.67 210.259C248.934 209.473 249.234 208.693 249.54 207.919C249.702 207.511 249.876 207.097 250.056 206.719C250.183 206.358 250.352 206.013 250.56 205.693C250.385 205.371 250.231 205.038 250.098 204.697C250.098 204.667 250.128 204.637 250.152 204.667C250.574 205.206 250.945 205.782 251.262 206.389C251.424 206.653 251.574 206.929 251.724 207.199C252.047 207.227 252.368 207.277 252.684 207.349C253.026 207.409 253.368 207.481 253.704 207.559C254.04 207.637 254.382 207.709 254.718 207.793C255.054 207.877 255.39 207.985 255.732 208.033C255.81 208.033 255.774 208.171 255.702 208.141C255.354 208.019 254.997 207.926 254.634 207.865C254.31 207.793 253.98 207.733 253.65 207.691C253.32 207.649 252.99 207.601 252.654 207.565L251.904 207.505C252.036 207.745 252.18 207.979 252.312 208.219C252.33 208.26 252.35 208.3 252.372 208.339C252.647 208.335 252.921 208.367 253.188 208.435C253.482 208.489 253.788 208.543 254.07 208.609C254.67 208.741 255.27 208.879 255.84 209.041C257.076 209.389 258.288 209.779 259.506 210.175C259.572 210.175 259.506 210.301 259.464 210.277C258.255 209.873 257.025 209.533 255.78 209.257C255.18 209.125 254.616 208.993 254.034 208.873L253.152 208.687C252.923 208.65 252.696 208.598 252.474 208.531C253.074 209.689 253.674 210.871 254.232 212.071C255.432 214.681 256.41 217.375 257.424 220.057C257.424 220.123 257.346 220.165 257.322 220.099C256.343 217.435 255.209 214.83 253.926 212.299C253.698 211.837 253.464 211.381 253.236 210.913C253.236 211.009 253.194 211.105 253.176 211.201C253.116 211.513 253.062 211.831 253.008 212.149C252.9 212.785 252.792 213.421 252.696 214.057C252.425 215.36 252.272 216.686 252.24 218.017C252.24 218.101 252.114 218.095 252.126 218.017C252.228 217.387 252.228 216.727 252.27 216.091C252.312 215.455 252.36 214.753 252.438 214.093C252.516 213.433 252.594 212.815 252.702 212.179C252.756 211.861 252.81 211.543 252.87 211.225C252.884 210.986 252.943 210.752 253.044 210.535C252.714 209.869 252.384 209.197 252.042 208.531C251.7 207.865 251.406 207.277 251.082 206.659C250.944 206.395 250.794 206.131 250.65 205.861C250.545 206.189 250.419 206.509 250.272 206.821L249.834 207.901C249.504 208.693 249.204 209.497 248.898 210.301C248.466 211.441 247.992 212.605 247.638 213.793C247.986 212.593 248.28 211.405 248.67 210.259Z" fill="#263238"/>
<path d="M247.554 214.033C247.554 213.937 247.608 213.847 247.638 213.757C247.608 213.847 247.584 213.937 247.554 214.033Z" fill="#263238"/>
<path d="M223.032 222.456L223.434 230.934L224.46 252.786H247.008L248.04 230.934L248.436 222.456H223.032Z" fill="#37474F"/>
<path d="M223.032 222.456L223.434 230.934H248.04L248.436 222.456H223.032Z" fill="#263238"/>
<path d="M221.424 225.883H250.038V219.025H221.424V225.883Z" fill="#37474F"/>
<path d="M245.184 252.786H241.224V256.374H245.184V252.786Z" fill="#37474F"/>
<path d="M245.184 252.786H241.224V254.58H245.184V252.786Z" fill="#263238"/>
<path d="M230.244 252.786H226.29V256.374H230.244V252.786Z" fill="#37474F"/>
<path d="M230.244 252.786H226.29V254.58H230.244V252.786Z" fill="#263238"/>
<path d="M24.378 256.464L55.782 256.32L87.186 256.266L150 256.164L212.814 256.266L244.218 256.32L275.622 256.464L244.218 256.614L212.814 256.662L150 256.764L87.186 256.662L55.782 256.614L24.378 256.464Z" fill="#263238"/>
<path d="M150.138 178.254C149.478 178.254 148.788 178.254 148.098 178.212V177.762C148.794 177.792 149.496 177.804 150.162 177.804H150.486V178.254H150.12H150.138ZM153.516 178.146L153.486 177.696C154.284 177.642 155.082 177.57 155.886 177.474L155.94 177.924C155.13 178.014 154.32 178.092 153.516 178.146ZM145.116 178.02C144.336 177.948 143.526 177.864 142.716 177.762L142.77 177.312C143.574 177.414 144.372 177.504 145.17 177.57L145.116 178.02ZM158.916 177.456L158.826 177.018C159.612 176.862 160.392 176.688 161.154 176.49L161.268 176.928C160.482 177.126 159.69 177.306 158.898 177.456H158.916ZM139.716 177.312C138.93 177.174 138.132 177.024 137.352 176.862L137.442 176.424C138.222 176.586 139.014 176.736 139.794 176.868L139.716 177.312ZM134.4 176.19C133.614 175.998 132.834 175.788 132.072 175.59L132.192 175.158C132.948 175.374 133.728 175.584 134.508 175.758L134.4 176.19ZM164.118 176.046L163.968 175.62C164.724 175.356 165.468 175.062 166.188 174.75L166.368 175.158C165.66 175.476 164.904 175.8 164.136 176.046H164.118ZM129.192 174.678C127.758 174.204 126.924 173.862 126.912 173.862L127.086 173.442C127.086 173.442 127.914 173.778 129.336 174.252L129.192 174.678ZM169.074 173.82L168.852 173.424C169.542 173.04 170.226 172.62 170.886 172.182L171.132 172.56C170.484 173.004 169.8 173.4 169.092 173.82H169.074ZM173.574 170.79L173.298 170.436C173.934 169.944 174.558 169.44 175.152 168.93L175.446 169.272C174.864 169.8 174.234 170.298 173.592 170.79H173.574ZM177.666 167.238L177.354 166.914C177.918 166.356 178.476 165.78 179.01 165.198L179.34 165.504C178.8 166.092 178.26 166.674 177.684 167.238H177.666ZM181.296 163.206L180.942 162.93C181.44 162.33 181.92 161.658 182.37 161.016L182.742 161.274C182.298 161.928 181.8 162.6 181.314 163.2L181.296 163.206ZM184.38 158.748L183.996 158.514C184.41 157.83 184.8 157.128 185.166 156.432L185.562 156.642C185.214 157.344 184.8 158.052 184.398 158.748H184.38ZM186.858 153.918L186.45 153.738C186.756 153.024 187.05 152.274 187.332 151.524L187.758 151.68C187.494 152.442 187.2 153.192 186.876 153.918H186.858ZM188.688 148.812L188.256 148.686C188.478 147.93 188.676 147.15 188.856 146.376L189.294 146.478C189.132 147.258 188.928 148.044 188.706 148.8L188.688 148.812ZM189.852 143.514L189.408 143.442C189.528 142.662 189.624 141.864 189.702 141.078L190.146 141.12C190.092 141.918 189.99 142.722 189.87 143.514H189.852ZM190.332 138.114H189.882C189.882 137.766 189.882 137.418 189.882 137.07C189.882 136.62 189.882 136.17 189.882 135.726H190.332C190.332 136.176 190.332 136.626 190.332 137.082C190.362 137.4 190.356 137.754 190.35 138.108L190.332 138.114ZM192.594 137.592C192.27 137.592 191.952 137.592 191.628 137.592V137.142C192.417 137.187 193.209 137.187 193.998 137.142L194.028 137.592C193.59 137.568 193.098 137.586 192.6 137.586L192.594 137.592ZM188.622 137.232C187.827 137.088 187.04 136.902 186.264 136.674L186.39 136.242C187.15 136.465 187.921 136.647 188.7 136.788L188.622 137.232ZM197.052 137.13L196.962 136.692C197.737 136.537 198.502 136.337 199.254 136.092L199.392 136.518C198.63 136.765 197.855 136.967 197.07 137.124L197.052 137.13ZM183.444 135.6C182.707 135.267 181.99 134.892 181.296 134.478L181.524 134.094C182.205 134.497 182.908 134.862 183.63 135.186L183.444 135.6ZM202.206 135.318L202.008 134.916C202.714 134.555 203.399 134.154 204.06 133.716L204.306 134.088C203.628 134.542 202.925 134.957 202.2 135.33L202.206 135.318ZM178.806 132.756C178.41 132.438 178.014 132.096 177.636 131.742C177.42 131.538 177.21 131.334 177.036 131.142L177.354 130.824C177.552 131.028 177.756 131.226 177.954 131.424C178.326 131.772 178.71 132.102 179.1 132.42L178.806 132.756ZM189.69 132.72C189.6 131.922 189.486 131.13 189.354 130.362L189.798 130.284C189.936 131.064 190.05 131.868 190.134 132.684L189.69 132.72ZM206.718 132.258L206.418 131.922C207.013 131.398 207.578 130.842 208.11 130.254L208.44 130.56C207.896 131.162 207.319 131.733 206.712 132.27L206.718 132.258ZM175.104 128.76C174.655 128.085 174.284 127.36 174 126.6L174.42 126.45C174.69 127.184 175.04 127.887 175.464 128.544L175.104 128.76ZM210.33 128.16L209.958 127.902C210.3 127.422 210.624 126.912 210.93 126.402C211.032 126.234 211.134 126.066 211.23 125.892L211.62 126.114C211.518 126.288 211.422 126.462 211.32 126.63C211.002 127.2 210.666 127.71 210.324 128.202L210.33 128.16ZM188.73 127.422C188.514 126.63 188.274 125.868 188.01 125.154L188.436 124.998C188.7 125.724 188.946 126.498 189.162 127.302L188.73 127.422ZM173.958 123.6H173.508C173.536 122.775 173.715 121.961 174.036 121.2L174.45 121.374C174.155 122.081 173.988 122.835 173.958 123.6ZM212.958 123.48L212.55 123.306C212.85 122.598 213.15 121.848 213.408 121.086L213.834 121.23C213.558 121.98 213.264 122.736 212.952 123.45L212.958 123.48ZM186.78 122.52C186.409 121.828 185.975 121.171 185.484 120.558L185.832 120.27C186.341 120.906 186.791 121.586 187.176 122.304L186.78 122.52ZM176.178 119.07L175.902 118.722C176.551 118.199 177.297 117.812 178.098 117.582L178.218 118.014C177.475 118.218 176.78 118.567 176.172 119.04L176.178 119.07ZM183.258 118.698C182.582 118.317 181.848 118.047 181.086 117.9L181.17 117.456C181.98 117.616 182.76 117.904 183.48 118.308L183.258 118.698ZM214.71 118.344L214.272 118.23C214.464 117.516 214.65 116.754 214.842 115.908L215.28 116.004C215.082 116.832 214.896 117.6 214.704 118.314L214.71 118.344ZM215.91 113.064L215.466 112.974L215.928 110.622L216.366 110.706L215.91 113.064ZM216.978 107.778L216.54 107.676C216.732 106.812 216.924 106.044 217.14 105.336L217.572 105.456C217.338 106.128 217.146 106.89 216.954 107.748L216.978 107.778ZM218.478 102.624L218.058 102.468C218.326 101.694 218.641 100.937 219 100.2L219.402 100.404C219.046 101.118 218.73 101.851 218.454 102.6L218.478 102.624ZM220.98 97.9382L220.614 97.6682C221.093 97.0172 221.616 96.3997 222.18 95.8202L222.498 96.1322C221.945 96.689 221.43 97.2823 220.956 97.9082L220.98 97.9382ZM224.73 94.2002L224.46 93.8342C225.114 93.3597 225.793 92.921 226.494 92.5202L226.716 92.9162C226.02 93.3026 225.349 93.7314 224.706 94.2002H224.73ZM229.38 91.6142L229.2 91.2002C229.83 90.9362 230.496 90.6842 231.186 90.4502L231.33 90.8762C230.628 91.0742 229.974 91.3202 229.356 91.5842L229.38 91.6142Z" fill="#263238"/>
<path d="M229.926 81.2644L225.336 93.8764L234.978 86.3464L271.83 72.9844L229.926 81.2644Z" fill="#48D189"/>
<path opacity="0.1" d="M229.926 81.2644L225.336 93.8764L234.978 86.3464L271.83 72.9844L229.926 81.2644Z" fill="black"/>
<path d="M236.214 89.2857L225.336 93.8757L234.978 86.3457L236.214 89.2857Z" fill="#263238"/>
<path d="M234.978 86.3464L271.83 72.9844L241.602 102.48L234.978 86.3464Z" fill="#48D189"/>
<path d="M229.926 81.264L214.614 71.376L271.83 72.984L229.926 81.264Z" fill="#48D189"/>
<path d="M50.052 256.368L150 256.8C174.294 237.726 176.802 209.46 159.468 192.33C148.986 181.962 135.666 184.05 123 182.4H122.964C118.548 181.8 114.216 180.798 110.1 178.626C97.038 171.738 89.7 155.484 78.69 141.81C77.322 140.1 75.888 138.432 74.388 136.824C65.352 127.176 47.388 126.864 37.962 140.424C14.046 174.882 24.99 226.2 50.052 256.368Z" fill="#48D189"/>
<path opacity="0.1" d="M47.832 177.51C50.448 218.52 97.8119 233.826 127.386 221.544C153.108 210.858 144.69 186.48 123 182.4H122.964C118.548 181.8 114.216 180.798 110.1 178.626C97.0379 171.738 89.6999 155.484 78.6899 141.81C62.3039 133.302 45.912 147.486 47.832 177.51Z" fill="black"/>
<path d="M141.93 262.8C140.388 262.236 105.552 234.396 104.898 232.494C104.646 231.774 108.402 226.494 113.124 220.176C114.144 218.82 115.206 217.422 116.292 216.012C123.33 206.838 131.016 197.274 131.016 197.274L154.374 215.826L139.008 234.06L135.636 238.062C135.636 238.062 144.204 254.688 144.702 256.848C145.2 259.008 143.472 263.4 141.93 262.8Z" fill="#D3766A"/>
<path d="M141.93 262.8C140.388 262.2 105.558 234.396 104.898 232.494C104.688 231.894 107.136 228.294 110.604 223.572C115.668 229.626 133.326 247.65 138.15 250.062C141.21 251.592 140.604 248.586 139.458 245.598C141.81 250.296 144.432 255.678 144.702 256.842C145.2 259.032 143.472 263.4 141.93 262.8Z" fill="#263238"/>
<path d="M177.96 180.174C176.364 192.306 146.46 227.334 143.004 231.354L142.2 232.266L117.48 213.258L117.762 212.892L139.548 184.368C139.548 184.368 103.548 205.368 85.506 195.846C77.4 191.562 71.4 183.948 71.4 183.948L94.92 171.408C94.92 171.408 101.43 173.514 105.588 172.908C119.928 170.808 152.058 158.61 159.684 158.916C169.53 159.318 179.43 169.038 177.96 180.174Z" fill="#37474F"/>
<path d="M147.372 173.766C146.562 174.678 145.811 175.64 145.122 176.646C144.354 177.66 143.568 178.656 142.8 179.646V179.676C142.938 179.376 143.07 179.076 143.214 178.788C143.7 177.78 144.09 176.742 144.66 175.788C144.664 175.777 144.663 175.764 144.659 175.753C144.655 175.742 144.647 175.732 144.636 175.726C144.626 175.72 144.614 175.717 144.602 175.719C144.59 175.72 144.578 175.726 144.57 175.734C143.97 176.688 143.298 177.594 142.77 178.596C142.53 179.07 142.308 179.55 142.098 180.036C141.984 180.3 141.864 180.57 141.762 180.84C141.706 180.967 141.658 181.097 141.618 181.23C141.276 181.698 140.934 182.166 140.604 182.646C139.872 183.708 139.224 184.83 138.48 185.886C138.438 185.94 138.528 185.994 138.57 185.94C139.32 184.95 140.166 184.026 140.928 183.042C141.69 182.058 142.446 181.014 143.172 179.976C143.898 178.938 144.576 177.942 145.29 176.928C146.066 175.93 146.782 174.887 147.432 173.802C147.45 173.778 147.402 173.736 147.372 173.766Z" fill="#263238"/>
<path d="M67.4939 138.775C67.1639 146.011 65.5559 154.645 68.6219 161.497C71.0219 166.861 76.0919 170.497 81.3239 172.801C92.8439 177.895 108.966 178.561 117.036 167.125C120.258 162.559 120.81 153.043 115.464 149.563C112.722 147.763 109.464 147.367 106.356 146.527C104.421 146.076 102.613 145.195 101.066 143.948C99.5188 142.701 98.2733 141.122 97.4219 139.327C93.7199 131.905 94.4579 126.475 93.7559 118.447C93.7403 117.649 93.5582 116.863 93.2214 116.14C92.8845 115.417 92.4004 114.772 91.7999 114.247C90.4813 112.949 88.8345 112.034 87.0359 111.601C85.5019 110.932 83.8255 110.656 82.1579 110.797C78.6059 111.169 75.1919 114.445 72.4379 116.485C69.6839 118.525 68.3759 120.685 68.1599 124.207C67.8659 129.049 67.7159 133.915 67.4939 138.775Z" fill="#263238"/>
<path d="M66.6 142.2C67.332 135.6 68.184 129 69 122.4C69 122.364 69.066 122.364 69.06 122.4C68.55 127.848 68.112 133.302 67.53 138.744C66.93 144.084 66.006 149.544 65.904 154.902C65.676 166.956 78.0719 171.858 88.32 171.27C88.7879 171.27 88.7759 171.99 88.32 172.002C79.32 172.236 68.55 169.158 65.826 159.36C64.314 153.984 66 147.6 66.6 142.2Z" fill="#263238"/>
<path d="M93.174 117.81C93.174 117.684 93.366 117.69 93.372 117.81C93.672 124.41 93.372 132.21 97.176 137.964C99.0352 140.808 101.713 143.021 104.856 144.312C107.346 145.326 109.986 145.416 112.584 145.926C122.784 147.924 122.862 161.664 115.464 167.022C115.308 167.136 115.11 166.872 115.26 166.752C120.468 162.606 122.184 155.064 117.942 149.532C114.534 145.092 107.994 146.532 103.35 144.132C93.726 139.14 93 127.434 93.174 117.81Z" fill="#263238"/>
<path d="M82.758 146.598C87.162 152.922 102.204 170.298 112.644 172.674C118.398 173.988 146.19 177.876 150 174.408C154.464 170.346 152.4 155.046 148.848 154.908C138.018 154.482 117.984 156.6 112.98 155.508C110.718 155.004 98.718 147.264 85.902 141.072C81.054 138.72 79.914 142.518 82.758 146.598Z" fill="#D3766A"/>
<path d="M93.5099 161.754L97.7099 146.28C97.7099 146.28 90.6599 142.368 86.4539 140.754C80.8859 138.618 78.7859 140.154 82.1999 146.646C84.4919 150.972 93.5099 161.754 93.5099 161.754Z" fill="#EBEBEB"/>
<path d="M92.472 159.787C92.928 157.495 93.414 155.209 94.002 152.947C94.296 151.819 94.602 150.691 94.938 149.575C95.274 148.459 95.712 147.367 96.018 146.245C96.018 146.185 96.138 146.215 96.114 146.245C95.748 147.349 95.514 148.513 95.214 149.635C94.914 150.757 94.614 151.885 94.302 153.013C93.702 155.269 93.102 157.525 92.562 159.787C92.55 159.883 92.46 159.853 92.472 159.787Z" fill="#263238"/>
<path d="M97.0559 148.716L93.51 161.76C93.51 161.76 84.5099 150.96 82.2059 146.646C81.1559 144.648 80.622 143.118 80.562 142.026L97.0559 148.716Z" fill="#263238"/>
<path d="M60.12 189.426C61.506 189.876 100.824 178.494 100.824 178.494L96.18 164.844C96.18 164.844 98.478 160.452 97.38 156.228C95.958 150.588 85.512 141.312 84.696 140.766C81.432 138.6 78.342 138.6 75.6 140.07C64.242 146.112 60.12 189.426 60.12 189.426Z" fill="#EBEBEB"/>
<path d="M90.1199 145.68C91.1339 146.88 92.2199 147.984 93.2639 149.136C92.7779 148.278 92.2919 147.414 91.7759 146.568C91.7759 146.568 91.7759 146.532 91.7759 146.568C92.5407 147.559 93.2078 148.622 93.7679 149.742C94.5529 150.615 95.2767 151.541 95.9339 152.514C96.7484 153.669 97.3574 154.956 97.7339 156.318C98.0598 157.695 98.1007 159.124 97.8539 160.518C97.5536 162.122 97.1098 163.697 96.5279 165.222C96.4559 165.426 96.1679 165.294 96.2219 165.096C96.9599 162.432 97.7999 159.618 97.2059 156.834C96.6119 154.05 94.8959 151.758 93.2219 149.568C92.237 148.23 91.1689 146.955 90.0239 145.752C89.9999 145.698 90.0719 145.632 90.1199 145.68Z" fill="#263238"/>
<path d="M83.568 163.861C85.2589 163.535 86.9715 163.334 88.692 163.261C89.544 163.261 90.396 163.261 91.248 163.303C91.674 163.303 92.1 163.303 92.526 163.303C92.9712 163.317 93.4165 163.276 93.852 163.183C93.888 163.183 93.906 163.231 93.852 163.243C93.4592 163.374 93.0584 163.48 92.652 163.561C92.2548 163.623 91.8539 163.659 91.452 163.669C90.582 163.669 89.718 163.669 88.848 163.705C87.102 163.741 85.35 163.777 83.61 163.945C83.502 164.011 83.49 163.873 83.568 163.861Z" fill="#263238"/>
<path d="M79.9019 166.465C81.22 165.942 82.5661 165.494 83.9339 165.121C84.6239 164.935 85.3139 164.797 86.0099 164.671L87.0179 164.509C87.3839 164.455 87.7619 164.449 88.1279 164.389C88.1699 164.389 88.1879 164.443 88.1279 164.449C87.7799 164.515 87.4439 164.641 87.1079 164.725L86.0759 164.983C85.3919 165.157 84.7079 165.343 84.0179 165.511C82.6439 165.847 81.2759 166.195 79.9139 166.579C79.9014 166.576 79.8899 166.57 79.8813 166.56C79.8727 166.551 79.8673 166.539 79.8659 166.526C79.8646 166.513 79.8674 166.501 79.8738 166.489C79.8803 166.478 79.8902 166.47 79.9019 166.465Z" fill="#263238"/>
<path d="M78.0659 140.838C78.2219 141.552 81.5519 146.238 84.8039 146.106C85.8599 146.07 85.9199 140.286 85.9199 140.286L86.0219 139.86L87.4499 133.89L79.4699 128.664C79.4699 128.664 77.9999 140.532 78.0659 140.838Z" fill="#D3766A"/>
<path d="M87.45 133.884L86.022 139.884C84.4143 139.254 82.9567 138.293 81.7434 137.064C80.53 135.836 79.588 134.366 78.978 132.75C79.224 130.692 79.434 128.982 79.464 128.73C79.4653 128.718 79.4653 128.706 79.464 128.694L80.478 129.294L87.45 133.884Z" fill="#263238"/>
<path d="M95.184 122.892C97.842 133.332 91.89 136.092 89.64 136.692C87.594 137.208 80.574 138.714 76.854 128.61C73.134 118.506 77.148 113.97 81.756 112.536C86.364 111.102 92.532 112.458 95.184 122.892Z" fill="#D3766A"/>
<path d="M93.18 121.596C92.928 121.596 92.688 121.596 92.436 121.596C92.1724 121.625 91.9065 121.566 91.68 121.428C91.6178 121.371 91.5765 121.294 91.5624 121.211C91.5483 121.127 91.5622 121.041 91.602 120.966C91.7 120.829 91.8331 120.722 91.9872 120.654C92.1414 120.586 92.3109 120.562 92.478 120.582C92.8259 120.57 93.1659 120.688 93.432 120.912C93.4836 120.968 93.5189 121.036 93.5339 121.11C93.5488 121.184 93.5429 121.261 93.5168 121.332C93.4906 121.403 93.4453 121.465 93.3858 121.512C93.3264 121.559 93.2551 121.588 93.18 121.596Z" fill="#263238"/>
<path d="M86.1599 123.792C86.4059 123.714 86.6159 123.606 86.8499 123.51C87.1049 123.442 87.3318 123.295 87.4979 123.09C87.536 123.014 87.5484 122.928 87.5333 122.845C87.5181 122.762 87.4762 122.685 87.4139 122.628C87.2733 122.534 87.1101 122.48 86.9413 122.47C86.7725 122.461 86.6042 122.497 86.4539 122.574C86.125 122.684 85.8489 122.913 85.6799 123.216C85.6438 123.287 85.6293 123.367 85.6382 123.447C85.6471 123.526 85.6791 123.601 85.7302 123.662C85.7813 123.723 85.8492 123.768 85.9256 123.791C86.002 123.815 86.0835 123.815 86.1599 123.792Z" fill="#263238"/>
<path d="M87.9479 125.106C87.9479 125.106 87.8999 125.148 87.9059 125.178C88.0799 125.892 88.1519 126.738 87.5519 127.11C87.5519 127.11 87.5519 127.158 87.5519 127.146C88.3379 126.876 88.1999 125.754 87.9479 125.106Z" fill="#263238"/>
<path d="M87.156 124.488C85.956 124.638 86.364 126.972 87.456 126.834C88.548 126.696 88.14 124.362 87.156 124.488Z" fill="#263238"/>
<path d="M86.718 124.686C86.532 124.848 86.37 125.118 86.118 125.184C85.866 125.25 85.5839 125.046 85.3559 124.842C85.3559 124.842 85.3199 124.842 85.3199 124.878C85.3919 125.328 85.638 125.754 86.13 125.742C86.622 125.73 86.826 125.286 86.862 124.818C86.88 124.728 86.79 124.62 86.718 124.686Z" fill="#263238"/>
<path d="M92.0999 124.2C92.0999 124.2 92.1599 124.23 92.1659 124.26C92.2559 124.986 92.4839 125.802 93.1739 125.94V125.982C92.3579 125.964 92.0699 124.878 92.0999 124.2Z" fill="#263238"/>
<path d="M92.628 123.312C93.78 123.042 94.236 125.364 93.168 125.616C92.1 125.868 91.662 123.54 92.628 123.312Z" fill="#263238"/>
<path d="M93.144 123.373C93.348 123.457 93.576 123.649 93.798 123.619C94.02 123.589 94.194 123.295 94.308 123.019C94.308 123.019 94.344 123.019 94.35 123.019C94.446 123.457 94.392 123.949 93.984 124.117C93.576 124.285 93.246 123.949 93.054 123.517C93 123.475 93.06 123.337 93.144 123.373Z" fill="#263238"/>
<path d="M88.914 131.527C89.106 131.683 89.298 131.899 89.568 131.899C89.8395 131.868 90.1013 131.78 90.336 131.641C90.336 131.641 90.384 131.641 90.372 131.677C90.2801 131.83 90.1486 131.955 89.9912 132.04C89.8338 132.124 89.6565 132.165 89.478 132.157C89.3304 132.126 89.195 132.053 89.0884 131.946C88.9819 131.84 88.9087 131.704 88.878 131.557C88.83 131.521 88.884 131.503 88.914 131.527Z" fill="#263238"/>
<path d="M91.578 128.214C91.7322 128.731 91.8604 129.256 91.962 129.786C91.962 129.834 91.848 129.876 91.68 129.912C91.2538 130.057 90.7958 130.082 90.3565 129.983C89.9172 129.885 89.5136 129.667 89.19 129.354C89.1811 129.345 89.1759 129.332 89.1753 129.319C89.1747 129.307 89.1788 129.294 89.1868 129.284C89.1948 129.273 89.2062 129.266 89.2189 129.264C89.2316 129.262 89.2447 129.264 89.256 129.27C89.9721 129.621 90.7832 129.728 91.566 129.576C91.566 129.432 90.966 127.776 91.056 127.776C91.4584 127.757 91.8617 127.789 92.256 127.872C91.656 125.64 90.738 123.522 90.192 121.272C90.1906 121.257 90.194 121.242 90.2018 121.229C90.2096 121.215 90.2213 121.205 90.2353 121.199C90.2493 121.193 90.2649 121.192 90.2797 121.195C90.2946 121.199 90.308 121.207 90.318 121.218C91.3922 123.455 92.2384 125.795 92.844 128.202C92.904 128.502 91.8 128.274 91.578 128.214Z" fill="#263238"/>
<path d="M91.626 129.714C91.4192 130.188 91.095 130.601 90.684 130.914C90.4556 131.08 90.1802 131.169 89.898 131.166C89.298 131.166 89.136 130.632 89.13 130.152C89.1293 129.898 89.1575 129.645 89.214 129.396C89.9637 129.756 90.8086 129.868 91.626 129.714Z" fill="#263238"/>
<path d="M90.6839 130.909C90.4556 131.074 90.1801 131.163 89.8979 131.161C89.2979 131.161 89.1359 130.627 89.1299 130.147C89.4369 130.082 89.7567 130.121 90.0383 130.26C90.32 130.398 90.5473 130.626 90.6839 130.909Z" fill="#FF9CBD"/>
<path d="M77.5979 129.366C78.7259 128.994 80.8559 125.058 79.4699 119.52C79.4699 119.52 80.3699 124.578 80.1899 125.4C80.0099 126.222 81.3899 123.192 80.3279 118.71C81.9946 119.337 83.7422 119.723 85.5179 119.856C87.7739 119.856 89.0579 119.52 89.1659 119.328C89.2739 119.136 85.9259 118.986 84.8339 118.248C84.8339 118.248 91.1099 119.346 93.7379 118.848C94.0439 118.794 92.7599 112.578 88.0859 111.048C83.4119 109.518 77.8559 114.006 76.6019 116.1C76.6019 116.1 74.6819 116.916 73.3079 120.438C71.9339 123.96 76.3919 129.768 77.5979 129.366Z" fill="#263238"/>
<path d="M78.714 128.965C78.714 128.965 75.852 126.031 74.514 127.105C73.176 128.179 75.678 132.697 77.55 133.063C77.7869 133.13 78.0351 133.147 78.2791 133.114C78.5232 133.082 78.7579 132.999 78.9688 132.872C79.1797 132.745 79.3623 132.576 79.5052 132.376C79.6482 132.175 79.7485 131.947 79.8 131.707L78.714 128.965Z" fill="#D3766A"/>
<path d="M75.24 128.4C75.21 128.4 75.21 128.442 75.24 128.448C76.56 128.742 77.4 129.786 78.054 130.902C77.9593 130.792 77.842 130.703 77.7099 130.643C77.5779 130.582 77.4343 130.551 77.289 130.551C77.1437 130.551 77 130.582 76.868 130.643C76.736 130.703 76.6186 130.792 76.524 130.902C76.494 130.902 76.524 130.974 76.572 130.962C76.7778 130.856 77.0116 130.817 77.2408 130.85C77.47 130.884 77.683 130.988 77.85 131.148C78.1297 131.405 78.3811 131.69 78.6 132C78.678 132.102 78.864 132 78.804 131.886C78.552 130.272 76.962 128.262 75.24 128.4Z" fill="#263238"/>
<path d="M69.984 149.688C66.822 167.622 69.882 181.056 72.924 182.724C81.126 187.2 100.824 178.116 106.38 176.31C108.6 175.584 98.4 158.4 96.096 159.468C90.696 161.964 83.13 166.2 82.824 166.164C82.224 166.104 81.504 161.526 78.372 148.164C75.834 137.4 71.28 142.356 69.984 149.688Z" fill="#D3766A"/>
<path d="M124.284 150.966C124.848 153.222 119.172 154.134 119.172 154.134C120.116 154.473 120.911 155.131 121.422 155.994C122.25 157.554 120.162 159.528 120.162 159.528C121.067 160.082 121.784 160.895 122.22 161.862C122.862 163.434 121.02 165.732 121.02 165.732C121.57 166.699 121.754 167.833 121.536 168.924C120.84 171.816 116.406 172.956 113.802 174.204C111.012 175.542 106.392 176.034 104.298 176.976L95.22 160.344C95.22 160.344 103.992 151.056 109.02 149.616C111.798 148.8 123.426 147.522 124.284 150.966Z" fill="#D3766A"/>
<path d="M119.112 154.086C115.956 153.948 112.77 154.566 109.704 155.196C109.693 155.2 109.684 155.206 109.678 155.216C109.671 155.225 109.668 155.236 109.668 155.247C109.668 155.258 109.671 155.269 109.678 155.278C109.684 155.287 109.693 155.294 109.704 155.298C112.746 154.638 116.04 154.776 119.1 154.236C119.117 154.233 119.132 154.224 119.144 154.211C119.155 154.199 119.162 154.183 119.163 154.165C119.165 154.148 119.16 154.131 119.151 154.117C119.142 154.103 119.128 154.092 119.112 154.086Z" fill="#263238"/>
<path d="M120 159.324C119.28 159.362 118.568 159.493 117.882 159.714C117.144 159.906 116.412 160.11 115.674 160.314C114.21 160.746 112.752 161.208 111.312 161.712C111.246 161.712 111.264 161.838 111.312 161.82C112.77 161.394 114.24 160.992 115.722 160.62C116.46 160.434 117.204 160.26 117.942 160.086C118.656 159.963 119.354 159.762 120.024 159.486C120.034 159.474 120.042 159.461 120.046 159.446C120.05 159.431 120.051 159.415 120.049 159.4C120.047 159.384 120.041 159.37 120.033 159.357C120.024 159.344 120.013 159.333 120 159.324Z" fill="#263238"/>
<path d="M120.984 165.75C120.332 165.791 119.693 165.946 119.094 166.206L117.096 166.806C115.764 167.214 114.432 167.616 113.088 167.976C113.022 167.976 113.04 168.102 113.088 168.084C114.456 167.724 115.83 167.388 117.198 167.016C117.864 166.836 118.536 166.65 119.202 166.458C119.837 166.351 120.448 166.127 121.002 165.798C121.004 165.794 121.005 165.789 121.005 165.784C121.005 165.779 121.005 165.775 121.003 165.77C121.001 165.766 120.999 165.762 120.996 165.758C120.992 165.755 120.988 165.752 120.984 165.75Z" fill="#263238"/>
<path d="M82.8 166.164C84.948 164.928 87.126 163.764 89.31 162.564L92.616 160.848L94.278 160.014C94.8431 159.72 95.4263 159.461 96.024 159.24L95.916 159.3C97.38 157.878 98.85 156.468 100.404 155.142C101.172 154.476 101.952 153.816 102.762 153.198C103.56 152.559 104.411 151.989 105.306 151.494C104.463 152.056 103.661 152.678 102.906 153.354C102.138 154.014 101.376 154.686 100.632 155.382C99.156 156.774 97.674 158.166 96.246 159.582L96.21 159.612L96.138 159.642C95.628 159.828 95.04 160.134 94.494 160.386L92.82 161.202L89.502 162.864C87.282 163.998 85.068 165.108 82.8 166.164Z" fill="#263238"/>
<path d="M66.936 165.288L81.27 158.088C81.27 158.088 79.47 150.228 77.868 146.016C75.744 140.448 73.182 139.932 70.668 146.784C68.952 151.374 66.936 165.288 66.936 165.288Z" fill="#EBEBEB"/>
<path d="M67.7099 163.201C69.7199 162.001 71.7479 160.849 73.8239 159.781C74.8619 159.247 75.9119 158.725 76.9619 158.221C78.0119 157.717 79.1219 157.327 80.1659 156.811C80.2199 156.811 80.2619 156.877 80.2019 156.901C79.1399 157.357 78.1199 157.969 77.0819 158.491C76.0439 159.013 74.9939 159.535 73.9559 160.069C71.8799 161.131 69.7979 162.187 67.7459 163.297C67.6919 163.321 67.6559 163.231 67.7099 163.201Z" fill="#263238"/>
<path d="M68.652 164.4C68.1 164.736 67.542 165.048 66.99 165.366L66.792 165.48L66.822 165.246C67.038 163.26 67.32 161.292 67.668 159.33C68.016 157.368 68.418 155.412 68.952 153.492C68.832 154.482 68.7 155.466 68.55 156.45C68.4 157.434 68.262 158.418 68.1 159.402C67.788 161.364 67.434 163.326 67.05 165.282L66.882 165.156C67.47 164.928 68.052 164.664 68.652 164.4Z" fill="#263238"/>
<path d="M68.166 155.49C68.1929 155.95 68.1929 156.411 68.166 156.87C68.1521 157.33 68.1141 157.789 68.052 158.244C67.9759 157.326 68.0041 156.402 68.136 155.49H68.166Z" fill="#263238"/>
<path d="M79.524 159C80.0761 158.665 80.6448 158.359 81.228 158.082C80.994 157.158 80.748 156.246 80.526 155.322C80.412 154.86 80.31 154.398 80.214 153.936C80.118 153.474 79.956 152.844 79.86 152.394C79.86 152.322 79.938 152.298 79.956 152.364C80.142 152.964 80.256 153.378 80.412 153.876C80.568 154.374 80.676 154.776 80.796 155.226C81.042 156.18 81.348 157.188 81.552 158.154C80.9056 158.5 80.236 158.8 79.548 159.054C79.5411 159.056 79.5339 159.055 79.5276 159.052C79.5212 159.049 79.5162 159.043 79.5133 159.037C79.5105 159.031 79.51 159.023 79.5119 159.016C79.5139 159.01 79.5181 159.004 79.524 159Z" fill="#263238"/>
<path d="M80.67 153C80.766 153.566 80.766 154.144 80.67 154.71C80.5661 154.145 80.5661 153.565 80.67 153Z" fill="#263238"/>
<path d="M137.034 175.435H95.3099V177.307H137.034V175.435Z" fill="#C7C7C7"/>
<path d="M104.238 175.435L102.81 177.307H137.034V175.435H104.238Z" fill="#A6A6A6"/>
<path d="M106.026 177.3H146.688L150.072 149.688H109.41L106.026 177.3Z" fill="#C7C7C7"/>
<path d="M125.574 163.495C125.563 163.819 125.619 164.142 125.736 164.444C125.854 164.746 126.032 165.022 126.259 165.253C126.486 165.485 126.758 165.668 127.058 165.792C127.358 165.915 127.68 165.977 128.004 165.973C128.664 165.97 129.297 165.709 129.768 165.246C130.239 164.783 130.51 164.155 130.524 163.495C130.534 163.173 130.479 162.854 130.362 162.554C130.246 162.254 130.071 161.981 129.847 161.751C129.623 161.52 129.355 161.337 129.059 161.212C128.763 161.087 128.445 161.022 128.124 161.023C127.459 161.016 126.819 161.272 126.341 161.735C125.864 162.198 125.588 162.83 125.574 163.495Z" fill="white"/>
<path d="M149.742 152.358C151.272 154.722 155.058 157.488 155.58 159.516C155.727 160.012 155.71 160.542 155.532 161.028C155.354 161.513 155.023 161.928 154.59 162.21C154.59 162.21 156.78 162.966 156.948 164.886C157.038 165.87 155.532 166.878 155.532 166.878C155.532 166.878 157.266 167.556 157.332 169.278C157.368 170.646 155.856 171.45 155.856 171.45C155.856 171.45 157.212 172.878 156.804 174.282C155.97 177.132 144.33 178.668 141.966 174.618C140.862 172.734 143.73 172.512 143.73 172.512C143.73 172.512 139.53 171.834 139.152 169.44C138.774 167.046 142.512 166.986 142.512 166.986C142.512 166.986 138.456 166.296 138.312 163.776C138.162 161.154 141.912 161.736 141.912 161.736C141.912 161.736 139.092 160.32 139.428 158.364C139.974 155.142 146.628 158.568 149.094 157.626L149.742 152.358Z" fill="#D3766A"/>
<path d="M155.616 171.601C155.624 171.601 155.632 171.604 155.637 171.609C155.643 171.615 155.646 171.623 155.646 171.631C155.646 171.639 155.643 171.646 155.637 171.652C155.632 171.657 155.624 171.661 155.616 171.661C151.77 173.17 147.555 173.474 143.532 172.531C143.406 172.495 143.4 172.279 143.532 172.285C147.572 172.646 151.643 172.416 155.616 171.601Z" fill="#263238"/>
<path d="M155.592 166.896C155.64 166.896 155.652 166.956 155.592 166.974C151.764 168.438 146.67 168.774 142.35 167.106C142.2 167.046 142.128 166.848 142.302 166.902C145.278 167.808 151.884 167.712 155.592 166.896Z" fill="#263238"/>
<path d="M141.6 161.502C145.8 162.966 150.06 162.936 154.422 162.276C154.476 162.276 154.482 162.348 154.422 162.372C152.376 163.272 149.55 163.404 147.342 163.32C145.293 163.283 143.29 162.708 141.534 161.652C141.492 161.61 141.522 161.472 141.6 161.502Z" fill="#263238"/>
<path d="M232.23 231.271C231.66 232.813 203.712 267.559 201.81 268.207C201.09 268.459 195.81 264.685 189.516 259.939C188.166 258.913 186.774 257.851 185.364 256.759C176.214 249.691 166.674 241.975 166.674 241.975L185.274 218.683L203.454 234.103L207.444 237.487C207.444 237.487 224.094 228.973 226.26 228.487C228.426 228.001 232.8 229.735 232.23 231.271Z" fill="#D3766A"/>
<path d="M232.236 231.276C231.636 232.812 203.712 267.558 201.81 268.212C201.18 268.434 197.052 265.572 191.826 261.678C197.16 257.796 217.404 239.562 220.122 234.624C221.55 232.026 219.462 232.044 216.906 232.764C221.106 230.706 225.276 228.714 226.29 228.48C228.45 228 232.8 229.734 232.236 231.276Z" fill="#263238"/>
<path d="M202.506 230.586L183.12 256.746L117.72 211.35L111.39 207C111.39 207 109.59 208.2 106.914 209.688C103.182 211.752 97.71 214.368 92.868 215.088C84.744 216.288 71.184 216.162 64.338 207.006C58.572 199.302 61.704 189.246 61.704 189.246L70.62 185.4C70.62 185.4 91.722 167.82 105.42 167.292C111.222 167.058 119.676 171.492 127.506 176.058C135.336 180.624 202.506 230.586 202.506 230.586Z" fill="#37474F"/>
<path d="M111.39 207C111.39 207 109.59 208.2 106.914 209.688C102.162 204 92.0999 193.662 91.7939 193.296L111.39 207Z" fill="#263238"/>
<path d="M78.354 179.49C77.094 180.366 75.87 181.29 74.628 182.196C73.386 183.102 72.138 183.912 70.974 184.878C69.81 185.844 68.67 186.912 67.554 187.968C67.02 188.478 66.486 188.994 65.964 189.522C65.415 190.031 64.9074 190.582 64.446 191.172C64.404 191.226 64.488 191.292 64.536 191.262C65.129 190.839 65.6942 190.378 66.228 189.882C66.828 189.384 67.428 188.88 67.992 188.382C69.126 187.416 70.284 186.48 71.412 185.514C72.54 184.548 73.578 183.504 74.694 182.514C75.81 181.524 77.142 180.498 78.378 179.514C78.402 179.514 78.378 179.472 78.354 179.49Z" fill="#263238"/>
<path d="M197.958 229.65C196.698 231.006 195.558 232.47 194.358 233.904C193.158 235.338 192.012 236.79 190.848 238.236C188.526 241.146 186.18 244.032 183.894 246.972C182.64 248.586 181.398 250.212 180.234 251.886C180.18 251.964 180.3 252.048 180.36 251.982C182.862 249.228 185.16 246.294 187.47 243.396C189.78 240.498 192.108 237.6 194.4 234.63C195.648 233.022 196.938 231.42 198.084 229.734C198.114 229.668 198 229.59 197.958 229.65Z" fill="#263238"/>
<path d="M144.264 229.921C141.012 227.353 137.634 224.929 134.262 222.523C130.89 220.117 127.548 217.723 124.14 215.407C123.162 214.741 122.172 214.087 121.188 213.433C120.204 212.779 119.178 212.173 118.218 211.495C118.158 211.459 118.11 211.549 118.164 211.591C119.052 212.227 119.886 212.935 120.756 213.595C121.626 214.255 122.412 214.861 123.246 215.479C124.884 216.679 126.534 217.879 128.184 219.079C131.528 221.479 134.898 223.859 138.294 226.219C140.226 227.539 142.146 228.871 144.12 230.131C144.24 230.191 144.378 230.005 144.264 229.921Z" fill="#263238"/>
<path d="M165.186 202.926C162.186 200.436 158.958 198.192 155.802 195.888C152.646 193.584 149.442 191.202 146.238 188.892C143.034 186.582 139.89 184.296 136.71 182.004C133.632 179.778 130.566 177.516 127.314 175.542C125.514 174.468 123.714 173.466 121.836 172.542C120.017 171.61 118.122 170.836 116.172 170.226C116.158 170.22 116.143 170.22 116.13 170.226C116.116 170.232 116.106 170.242 116.1 170.256C116.094 170.269 116.094 170.285 116.1 170.298C116.106 170.312 116.116 170.322 116.13 170.328C117.738 171.222 119.418 171.972 121.044 172.836C122.67 173.7 124.224 174.588 125.778 175.53C129.006 177.492 132.054 179.73 135.114 181.914C141.474 186.486 147.822 191.082 154.23 195.594C157.83 198.114 161.322 200.778 165.03 203.1C165.162 203.196 165.294 203.016 165.186 202.926Z" fill="#263238"/>
<path d="M156.405 139.787C158.077 129.584 151.162 119.957 140.96 118.285C130.757 116.612 121.13 123.527 119.458 133.73C117.785 143.932 124.7 153.559 134.903 155.232C145.105 156.904 154.732 149.989 156.405 139.787Z" fill="#48D189"/>
<path d="M148.83 148.842H127.014V130.386L137.922 123.462L148.83 130.386V148.842Z" fill="#A6A6A6"/>
<path d="M147.6 148.656H128.25V124.41H142.62L147.6 129.15V148.656Z" fill="white"/>
<path d="M142.62 124.41L147.6 129.15H142.62V124.41Z" fill="#EBEBEB"/>
<path d="M130.14 129.222H140.898V128.586H130.14V129.222Z" fill="#DBDBDB"/>
<path d="M130.14 130.83H140.898V130.194H130.14V130.83Z" fill="#DBDBDB"/>
<path d="M130.14 132.438H140.898V131.801H130.14V132.438Z" fill="#DBDBDB"/>
<path d="M130.134 134.052H145.902V133.416H130.134V134.052Z" fill="#DBDBDB"/>
<path d="M130.134 135.66H145.902V135.024H130.134V135.66Z" fill="#DBDBDB"/>
<path d="M130.134 137.273H145.902V136.637H130.134V137.273Z" fill="#DBDBDB"/>
<path d="M130.134 138.882H145.902V138.246H130.134V138.882Z" fill="#DBDBDB"/>
<path d="M130.134 140.49H145.902V139.854H130.134V140.49Z" fill="#DBDBDB"/>
<path d="M130.134 142.104H145.902V141.468H130.134V142.104Z" fill="#DBDBDB"/>
<path d="M130.134 143.712H145.902V143.076H130.134V143.712Z" fill="#DBDBDB"/>
<path d="M130.134 145.326H145.902V144.69H130.134V145.326Z" fill="#DBDBDB"/>
<path d="M130.134 146.934H145.902V146.298H130.134V146.934Z" fill="#DBDBDB"/>
<path d="M148.83 135V148.836H127.02V135C127.956 135.528 128.874 136.086 129.804 136.632C130.734 137.178 131.652 137.736 132.564 138.3C133.588 138.924 134.61 139.556 135.63 140.196L137.922 141.63L140.208 140.196H140.178H140.214L143.274 138.306C144.192 137.742 145.116 137.19 146.04 136.638C146.964 136.086 147.894 135.534 148.83 135Z" fill="#EBEBEB"/>
<path d="M148.83 135C147.954 135.6 147.03 136.2 146.166 136.8C145.302 137.4 144.366 138 143.472 138.6C142.578 139.2 141.588 139.83 140.646 140.436L140.562 140.496L138.048 142.098L137.922 142.17L137.802 142.098L135.294 140.49L135.204 140.436C134.256 139.832 133.312 139.22 132.372 138.6C131.478 138 130.572 137.4 129.684 136.8C128.796 136.2 127.884 135.6 127.02 135C127.956 135.528 128.874 136.086 129.804 136.632C130.734 137.178 131.652 137.736 132.564 138.3C133.588 138.924 134.61 139.556 135.63 140.196L137.922 141.63L140.208 140.196L143.268 138.306C144.186 137.742 145.11 137.19 146.034 136.638C146.958 136.086 147.894 135.534 148.83 135Z" fill="#DBDBDB"/>
<path d="M135.66 140.184L135.318 140.478C134.772 140.94 134.208 141.384 133.638 141.81C132.942 142.344 132.234 142.848 131.52 143.352C130.806 143.856 130.08 144.342 129.342 144.81C128.604 145.278 127.866 145.746 127.092 146.166C127.758 145.566 128.442 145.05 129.138 144.522C129.834 143.994 130.548 143.484 131.256 142.98C131.964 142.476 132.696 141.99 133.434 141.516C134.034 141.138 134.634 140.772 135.234 140.424C135.372 140.34 135.516 140.262 135.66 140.184Z" fill="#DBDBDB"/>
<path d="M148.8 146.184C148.026 145.764 147.282 145.302 146.55 144.828C145.818 144.354 145.092 143.868 144.366 143.37C143.64 142.872 142.944 142.362 142.248 141.828C141.684 141.402 141.12 140.964 140.58 140.502L140.232 140.202H140.202H140.238L140.664 140.448C141.264 140.796 141.864 141.162 142.464 141.54C143.196 142.014 143.922 142.506 144.636 143.004C145.35 143.502 146.064 144.012 146.754 144.546C147.444 145.08 148.116 145.608 148.8 146.184Z" fill="#DBDBDB"/>
<path d="M142.395 133.754C142.979 131.287 141.453 128.814 138.987 128.229C136.52 127.645 134.047 129.17 133.462 131.637C132.878 134.104 134.404 136.577 136.87 137.162C139.337 137.746 141.81 136.22 142.395 133.754Z" fill="#48D189"/>
<path d="M135.6 133.074C136.256 133.621 136.877 134.208 137.46 134.832L137.04 134.862C137.268 134.46 137.514 134.07 137.766 133.662C138.018 133.254 138.27 132.888 138.54 132.516C139.068 131.753 139.648 131.028 140.274 130.344C139.907 131.197 139.48 132.023 138.996 132.816C138.768 133.212 138.51 133.602 138.264 134.016C138.018 134.43 137.754 134.784 137.478 135.162L137.268 135.456L137.058 135.192C136.527 134.518 136.04 133.81 135.6 133.074Z" fill="white"/>
</svg>
