<svg width="19" height="17" viewBox="0 0 19 17" fill="none" xmlns="http://www.w3.org/2000/svg">
<path d="M7.85481 7.63418V3.97969H2.89819V0.776367H16.7489V4.02481H11.7923V7.63418H7.85481Z" fill="#00A478"/>
<path fill-rule="evenodd" clip-rule="evenodd" d="M0.767334 8.03984C0.767334 6.82168 4.75116 5.8291 9.70778 5.8291C14.6644 5.8291 18.6482 6.82168 18.6482 8.03984C18.6482 9.25801 14.6644 10.2506 9.70778 10.2506C4.75116 10.2506 0.767334 9.25801 0.767334 8.03984ZM17.907 8.03985C17.5827 7.58868 14.896 6.19005 9.70772 6.19005C4.51949 6.19005 1.83272 7.54356 1.50846 8.03985C1.83272 8.49102 4.51949 9.16778 9.70772 9.16778C14.9423 9.16778 17.5827 8.49102 17.907 8.03985Z" fill="#00A478"/>
<path d="M11.7921 8.7623V6.23574C11.1435 6.19063 10.4487 6.14551 9.75382 6.14551C9.10529 6.14551 8.50308 6.14551 7.90088 6.19063V8.71719C8.45676 8.71719 9.10529 8.7623 9.75382 8.7623C10.4487 8.80742 11.1435 8.80742 11.7921 8.7623Z" fill="#00A478"/>
<path d="M9.70768 10.2514C9.05915 10.2514 8.45694 10.2514 7.85474 10.2062V16.9287H11.7459V10.1611C11.0974 10.2062 10.4025 10.2514 9.70768 10.2514Z" fill="#00A478"/>
</svg>
