<svg width="27" height="25" viewBox="0 0 27 25" fill="none" xmlns="http://www.w3.org/2000/svg">
<path d="M7.71321 21.0477C6.20809 20.9428 4.77796 20.409 3.62704 19.5225C2.47611 18.6361 1.66324 17.4422 1.30448 16.1115C0.945726 14.7808 1.05943 13.3812 1.62937 12.1126C2.19931 10.8441 3.19633 9.77135 4.47807 9.04766C4.7508 7.11775 5.7891 5.34416 7.39864 4.05882C9.00819 2.77347 11.0787 2.06445 13.2226 2.06445C15.3666 2.06445 17.4371 2.77347 19.0466 4.05882C20.6562 5.34416 21.6945 7.11775 21.9672 9.04766C23.249 9.77135 24.246 10.8441 24.8159 12.1126C25.3859 13.3812 25.4996 14.7808 25.1408 16.1115C24.7821 17.4422 23.9692 18.6361 22.8183 19.5225C21.6673 20.409 20.2372 20.9428 18.7321 21.0477V21.0667H7.71321V21.0477ZM14.3245 13.0667H17.6302L13.2226 8.06666L8.8151 13.0667H12.1208V17.0667H14.3245V13.0667Z" fill="#C0CCDA"/>
</svg>
