<svg width="24" height="25" viewBox="0 0 24 25" fill="none" xmlns="http://www.w3.org/2000/svg">
<path d="M2 9.06641H21C21.2652 9.06641 21.5196 9.17176 21.7071 9.3593C21.8946 9.54684 22 9.80119 22 10.0664V20.0664C22 20.3316 21.8946 20.586 21.7071 20.7735C21.5196 20.9611 21.2652 21.0664 21 21.0664H3C2.73478 21.0664 2.48043 20.9611 2.29289 20.7735C2.10536 20.586 2 20.3316 2 20.0664V9.06641ZM3 3.06641H18V7.06641H2V4.06641C2 3.80119 2.10536 3.54684 2.29289 3.3593C2.48043 3.17176 2.73478 3.06641 3 3.06641ZM15 14.0664V16.0664H18V14.0664H15Z" fill="#909198"/>
</svg>
